{
	"asset":{
		"generator":"Khronos glTF Blender I/O v3.5.30",
		"version":"2.0"
	},
	"scene":0,
	"scenes":[
		{
			"name":"Scene",
			"nodes":[
				0,
				1,
				2,
				3
			]
		}
	],
	"nodes":[
		{
			"mesh":0,
			"name":"Grid"
		},
		{
			"mesh":1,
			"name":"Grid.001"
		},
		{
			"mesh":2,
			"name":"Plane",
			"translation":[
				0,
				0,
				0.7382458448410034
			]
		},
		{
			"mesh":3,
			"name":"Grid.002"
		}
	],
	"meshes":[
		{
			"name":"Grid.001",
			"primitives":[
				{
					"attributes":{
						"POSITION":0,
						"TEXCOORD_0":1,
						"NORMAL":2
					},
					"indices":3
				}
			]
		},
		{
			"name":"Grid.002",
			"primitives":[
				{
					"attributes":{
						"POSITION":4,
						"NORMAL":5
					},
					"indices":3
				}
			]
		},
		{
			"name":"Plane",
			"primitives":[
				{
					"attributes":{
						"POSITION":6,
						"TEXCOORD_0":7,
						"NORMAL":8
					},
					"indices":9
				}
			]
		},
		{
			"name":"Grid.003",
			"primitives":[
				{
					"attributes":{
						"POSITION":10,
						"TEXCOORD_0":11,
						"NORMAL":12
					},
					"indices":3
				}
			]
		}
	],
	"accessors":[
		{
			"bufferView":0,
			"componentType":5126,
			"count":1089,
			"max":[
				0.5,
				0.5,
				0
			],
			"min":[
				-0.5,
				-0.5,
				0
			],
			"type":"VEC3"
		},
		{
			"bufferView":1,
			"componentType":5126,
			"count":1089,
			"type":"VEC2"
		},
		{
			"bufferView":2,
			"componentType":5126,
			"count":1089,
			"type":"VEC3"
		},
		{
			"bufferView":3,
			"componentType":5123,
			"count":6144,
			"type":"SCALAR"
		},
		{
			"bufferView":4,
			"componentType":5126,
			"count":1089,
			"max":[
				0.5,
				0.5,
				0
			],
			"min":[
				-0.5,
				-0.5,
				0
			],
			"type":"VEC3"
		},
		{
			"bufferView":5,
			"componentType":5126,
			"count":1089,
			"type":"VEC3"
		},
		{
			"bufferView":6,
			"componentType":5126,
			"count":3626,
			"max":[
				0.5003008842468262,
				0.5,
				0.13882341980934143
			],
			"min":[
				-0.501238226890564,
				-0.5,
				0
			],
			"type":"VEC3"
		},
		{
			"bufferView":7,
			"componentType":5126,
			"count":3626,
			"type":"VEC2"
		},
		{
			"bufferView":8,
			"componentType":5126,
			"count":3626,
			"type":"VEC3"
		},
		{
			"bufferView":9,
			"componentType":5123,
			"count":6534,
			"type":"SCALAR"
		},
		{
			"bufferView":10,
			"componentType":5126,
			"count":1089,
			"max":[
				0.5,
				0.5,
				0
			],
			"min":[
				-0.5,
				-0.5,
				0
			],
			"type":"VEC3"
		},
		{
			"bufferView":11,
			"componentType":5126,
			"count":1089,
			"type":"VEC2"
		},
		{
			"bufferView":12,
			"componentType":5126,
			"count":1089,
			"type":"VEC3"
		}
	],
	"bufferViews":[
		{
			"buffer":0,
			"byteLength":13068,
			"byteOffset":0,
			"target":34962
		},
		{
			"buffer":0,
			"byteLength":8712,
			"byteOffset":13068,
			"target":34962
		},
		{
			"buffer":0,
			"byteLength":13068,
			"byteOffset":21780,
			"target":34962
		},
		{
			"buffer":0,
			"byteLength":12288,
			"byteOffset":34848,
			"target":34963
		},
		{
			"buffer":0,
			"byteLength":13068,
			"byteOffset":47136,
			"target":34962
		},
		{
			"buffer":0,
			"byteLength":13068,
			"byteOffset":60204,
			"target":34962
		},
		{
			"buffer":0,
			"byteLength":43512,
			"byteOffset":73272,
			"target":34962
		},
		{
			"buffer":0,
			"byteLength":29008,
			"byteOffset":116784,
			"target":34962
		},
		{
			"buffer":0,
			"byteLength":43512,
			"byteOffset":145792,
			"target":34962
		},
		{
			"buffer":0,
			"byteLength":13068,
			"byteOffset":189304,
			"target":34963
		},
		{
			"buffer":0,
			"byteLength":13068,
			"byteOffset":202372,
			"target":34962
		},
		{
			"buffer":0,
			"byteLength":8712,
			"byteOffset":215440,
			"target":34962
		},
		{
			"buffer":0,
			"byteLength":13068,
			"byteOffset":224152,
			"target":34962
		}
	],
	"buffers":[
		{
			"byteLength":237220,
			"uri":"data:application/octet-stream;base64,"
		}
	]
}
