<svg xmlns="http://www.w3.org/2000/svg" xmlns:xlink="http://www.w3.org/1999/xlink" class="svg-sprite"><symbol fill="none" class="svg-sprite" id="about-circle" viewBox="0 0 70 70"><circle cx="35" cy="35" r="34"/></symbol><symbol fill="none" class="svg-sprite" id="about-rectangle" viewBox="0 0 31 8"><path fill="#94E6FB" d="M0 0h31v8H0z"/></symbol><symbol class="svg-sprite" id="alert" viewBox="0 0 47 47"><path d="M22.5 26.9c-.4 0-.6-.2-.6-.6V15.8c0-.4.2-.6.6-.6h2.1c.4 0 .6.2.6.6v10.4c0 .4-.2.6-.6.6h-2.1zm0 4.8c-.4 0-.6-.2-.6-.6v-1.9c0-.4.2-.6.6-.6h2.1c.4 0 .6.2.6.6v1.9c0 .4-.2.6-.6.6h-2.1z" fill="#94e6fb"/></symbol><symbol fill="none" class="svg-sprite" id="arrow-right" viewBox="0 0 10 9"><path fill-rule="evenodd" clip-rule="evenodd" d="M8.647 4.069l.355.355.15.152-3.89 3.89-.707-.706 2.728-2.728H0v-1h7.196L4.404 1.24l.707-.707L8.61 4.032h.037v.037z" fill="#94E6FB"/></symbol><symbol fill="none" class="svg-sprite" id="bmf-shield" viewBox="0 0 43 45"><path d="M36.869 19.294c2.433-.273 4.58-1.652 5.334-2.107.117.832.182 1.691.208 2.589-.156.169-3.408 3.551-7.246 3.551-2.641 0-6.037-2.055-7.949-3.044-1.912-.989-4.501-2.29-7.311-2.29-4.814 0-7.104 2.472-10.954 4.215C5.178 23.913 0 23.822 0 23.822v-3.864c1.522.013 7.155-.052 10.707-1.535 2.042-.872 2.81-1.223 4.488-2.056 4.983-2.472 8.17-1.626 10.42-.872 2.251.768 3.956 2.03 5.569 2.707 1.353.624 3.252 1.378 5.685 1.092zm-7.858 19.918c4.54-1.86 7.897-4.853 10.122-8.248-.052.039-.078.065-.078.078-5.542 3.72-11.046 4.137-13.7 3.434-3.096-.82-6.413-2.992-9.171-3.98-2.745-.99-6.596-.456-9.471.728a461.42 461.42 0 01-5.19 2.043c1.417 2.784 4.11 5.138 9.17 6.673 5.023 1.549 8.067 2.394 8.834 4.307 1.418-2.641 5.555-3.474 9.484-5.035z" fill="#fff"/><path d="M32.85 13.388c1.677.637 3.447 1.08 5.944.976 1.015-.065 1.965-.326 2.615-.534.196.599.365 1.223.508 1.874-.82.403-2.602 1.17-4.827 1.314-2.693.182-5.724-1.353-7.467-2.186-1.73-.833-3.903-2.095-6.453-2.134-2.797-.052-5.126 1.236-6.453 1.809-1.327.572-2.784 1.522-6.192 2.719C7.103 18.423 1.56 18.345 0 18.293v-2.524c1.548 0 6.908.078 10.121-.52 3.877-.73 9.224-3.721 11.384-4.216 1.925-.442 3.37-.416 5.503.17 2.133.585 4.306 1.665 5.841 2.185zm8.416 13.27a19.419 19.419 0 001.054-4.58c-1.73 2.199-4.592 3.721-6.023 4.033-2.81.716-5.464.091-7.247-.832-1.782-.833-5.06-3.006-7.545-3.942-2.485-.937-4.84-.872-6.934-.3-1.744.482-4.944 2.563-7.143 3.617C4.84 25.89 1.223 26.06.013 26.085c.039 1.874.221 3.721.78 5.438.95-.286 2.186-.637 3.851-1.457 2.563-1.262 6.219-4.618 10.694-4.436 3.942.156 6.713 2.355 9.927 3.747 3.226 1.392 8.365 2.602 13.66-.768a12.905 12.905 0 002.341-1.951z" fill="#fff"/><path d="M13.842 13.05c-3.044.936-5.503 1.418-11.136 1.418H0V11.54h5.23c6.869 0 8.17-3.67 6.817-5.23 2.276-.026 4.215 1.704 8.69 1.704 3.057 0 4.345-1.925 4.345-3.838 0-1.43-.546-2.94-2.393-4.137 4.579-.481 14.635 3.344 18.33 12.658a20.76 20.76 0 01-2.459.3c-2.211.143-4.007-.469-5.659-1.12-1.665-.65-4.618-2.263-7.155-2.367-4.905-.195-8.378 2.446-11.904 3.539z" fill="#fff"/></symbol><symbol fill="none" class="svg-sprite" id="briefcase" viewBox="0 0 20 17"><path d="M6.88 2.069c.018-.364.322-.578.758-.578.93-.006 1.867 0 2.798 0 .573 0 1.152-.006 1.725 0 .525.006.782.26.788.769v.624h1.533v-.55c0-1.34-1.02-2.328-2.399-2.334h-4.35C6.35 0 5.334.994 5.328 2.335v.543h1.54c-.006-.266 0-.543.012-.809zm12.932 3.855c-.006-1.364-.925-2.22-2.334-2.225H2.77c-.185 0-.364 0-.55.006C1.2 3.716.383 4.288.114 5.19a3.331 3.331 0 00-.107.913C0 8.93 0 11.755 0 14.582c0 .161 0 .33.018.49.101.793.495 1.411 1.271 1.712.358.138.77.196 1.158.202 2.452.017 4.905.011 7.357.011 2.554 0 5.102.006 7.656 0 1.444-.005 2.346-.855 2.352-2.236a873.48 873.48 0 000-8.837zM2.77 3.693h1.945c-.65 0-1.301-.006-1.946 0zm12.405 0h1.922-1.922z" fill="#94E6FB"/></symbol><symbol class="svg-sprite" id="care" viewBox="0 0 22 22"><path d="M21.2 19.1c-1.8-.1-3.6-.3-5.4-.7-1.2-.3-2.5-.5-3.7-.8l-1.2-.3c-2.8-1-5.6-2.1-8.3-3.1-.5-.2-.9-.4-1.4-.6-.4-.2-.5-.5-.3-.9.1-.3.4-.4.7-.4.4 0 .8.1 1.1.2 1.2.4 2.5.9 3.7 1.3.3.1.6.2.9.2 2 .1 4.1.3 6.1.4.2 0 .5.1.6-.1 0-.3-.2-.3-.3-.4-.9-.6-1.9-1.1-3-1.3h-.1c-.6-.1-.9-.4-.9-.9 0-.4.4-.7 1.1-.6 1.1.1 2.2.3 3.4.5.5.1 1.1.3 1.6.4 1.7.5 2.9 1.6 3.7 3.2.1.1.2.3.3.4.1-.1.2-.1.3-.1 0-.2-.1-.3-.1-.6h1.7c.5.9.5 3.4-.5 4.2z" fill="#94e6fb"/><path d="M7.3 13.4c-.3 0-.5 0-.6-.1-1.2-.4-2.5-.9-3.7-1.3-.1-.3 0-.6.2-.7.3-.1.6 0 .8.2 1 .8 2 1.3 3.1 1.8 0-.1 0 0 .2.1zM9.6 2.9c.5-.5 1-.7 1.7-.7 1.4 0 2.3 1.3 2 2.6-.1.6-.5 1.1-.9 1.5-.8.9-1.8 1.6-2.8 2.2-.4-.3-.7-.5-1.1-.8-.7-.5-1.4-1.1-2-1.9-.5-.6-.7-1.3-.6-2 .2-.8.7-1.4 1.5-1.6.8-.2 1.5 0 2.1.5 0 .1.1.1.1.2z" fill="#94e6fb"/></symbol><symbol fill="none" class="svg-sprite" id="caret" viewBox="0 0 11 6"><path d="M.69.996l5 5 5-5L9.7.004 5.69 4.013 1.684.004.69.996z" fill="#94E6FB"/></symbol><symbol fill="none" class="svg-sprite" id="carousel-button" viewBox="0 0 44 44"><circle opacity=".1" cx="22" cy="22" r="21.5" stroke="#94E6FB"/><path fill="#94E6FB" stroke="#94E6FB" stroke-width=".5" d="M26.185 22.283l-5.656 5.656-.839-.838 5.657-5.657z"/><path fill="#94E6FB" stroke="#94E6FB" stroke-width=".5" d="M25.347 23.087l-5.658-5.66.838-.838 5.66 5.66z"/></symbol><symbol class="svg-sprite" id="check" viewBox="0 0 47 47"><path d="M27.4 20.6l-5.7 5.7c-.1.1-.2.1-.3 0l-1.8-1.8" fill="none" stroke="#083d63" stroke-width="1.8" stroke-linecap="round" stroke-miterlimit="10"/></symbol><symbol fill="none" class="svg-sprite" id="close-modal" viewBox="0 0 70 70"><path fill-rule="evenodd" clip-rule="evenodd" d="M36.414 35l4.243 4.243-1.468 1.468-4.243-4.243-4.189 4.189-1.468-1.468L33.478 35l-4.189-4.189 1.468-1.468 4.19 4.189 4.242-4.243 1.468 1.468L36.414 35z" fill="#94E6FB"/><circle opacity=".1" cx="35" cy="35" r="34" stroke="#E5FAFF"/></symbol><symbol fill="none" class="svg-sprite" id="conversation" viewBox="0 0 22 20"><path d="M0 8.032c.03-.112.06-.224.095-.336.27-.854 1.102-1.475 2.036-1.484C3.5 6.2 4.868 6.208 6.233 6.208c.043 0 .082.009.146.013v6.532h7.925v1.848c-.005 1.248-.956 2.168-2.256 2.172-1.726.005-3.452.005-5.178-.004a.6.6 0 00-.465.191c-.956.933-1.924 1.853-2.884 2.781-.056.054-.099.116-.15.178a.317.317 0 00-.057-.02v-3.121h-.908c-1.3 0-2.044-.56-2.376-1.774-.004-.021-.017-.038-.026-.054C0 12.637 0 10.336 0 8.032z" fill="#94E6FB"/><path d="M18.698 11.489v3.162c-.09-.083-.142-.128-.193-.178-.982-.945-1.967-1.886-2.949-2.835a.482.482 0 00-.374-.15c-2.398.005-4.795.005-7.193.005h-.293V3.174c0-1.355.934-2.259 2.338-2.259h9.663c1.352 0 2.299.912 2.303 2.21v6.163c0 1.277-.938 2.188-2.264 2.205-.336 0-.672-.004-1.038-.004z" fill="#94E6FB"/></symbol><symbol class="svg-sprite" id="coral" viewBox="0 0 22 22"><path d="M14.2 6.1c.6 0 .7-.3.8-.7.2-.4.3-.8.5-1.1.3-.3.6-.6 1-.8.4-.3.9-.3 1.3.1.5.4.5.9.2 1.3-.3.5-.8 1-1.3 1.5-1 1-1.7 2.1-2 3.5-.1.4 0 .8 0 1.2.1 0 .2.1.2.1.2-.2.5-.5.6-.7.3-.5.5-1.1.7-1.7.4-.7.8-1.3 1.2-2 .2-.2.5-.5.8-.5.3-.1.9 0 1.1.2.2.2.1.7-.1 1-.3.4-.8.8-1.1 1.2-.3.3-.5.6-.2 1.1l.9-.3c.3-.1.6-.3.9-.3.3 0 .6.2.7.4.1.2.1.6-.1.8-.3.3-.6.6-1 .8-.9.4-1.8.6-2.7 1.1-1.1.5-2.1 1-3.1 1.6-.7.5-.9 1.1-.6 1.3.6.4 1.1 0 1.5-.2.6-.3 1.1-.8 1.7-1.1.7-.4 1.5-.7 2.3-.9.5-.1 1.1 0 1.6.2.3.1.7.5.7.8 0 .3-.4.7-.7.8-.6.2-1.3.3-2 .4-.4.1-1.1-.2-1.2.3-.2.6.6.5.9.7.2.1.5.2.6.4.3.3.3.8-.2.9-.4.1-.9.2-1.3.1-.8-.2-1.6-.5-2.4-.7-.5-.1-1.1-.3-1.6.4.3.2.6.3.8.4.4.1.9.1 1.3.2.5.1.9.3 1 .8.1.5-.2 1-.7 1.1-.4.1-.9.1-1.3 0-1-.2-1.7-.8-2.3-1.5-.4-.4-.8-.8-1.6-.6 0 .2-.1.5-.1.7 0 .2.1.3.2.5.2.8 0 1.3-.6 1.5-.7.2-1.4-.2-1.6-.9-.1-.3-.1-.7-.2-1.1-.2-.9-.6-1.2-1.5-1.1-.2-.3-1-.2-1.8 0-.7.1-1.4 0-1.8-.5-.6-.6-.4-1.3.4-1.4.5-.1.9 0 1.4 0h.8c0-.1 0-.2.1-.3-.3-.1-.7-.3-1-.4-.4-.1-.9-.1-1.3-.1-.3 0-.5 0-.7-.1-.5-.2-.9-.4-.8-1 0-.4.5-.7 1.2-.7 1.2 0 2.3.4 3.3 1.1.4.3.8.6 1.5.4.3-.5-.1-.9-.5-1.2-.7-.5-1.4-.8-2.3-.9-1-.1-1.8-.2-2.7-.3-.9-.2-1.3-.7-1.1-1.2.2-.5.9-.7 1.7-.4.4.2.8.3 1.4.4 0-.6-.4-.8-.8-.9-.2-.2-.6-.3-1-.5-.7-.3-.9-.9-.6-1.5.3-.6 1-.9 1.6-.5.5.3.8.7 1.2 1 .5.6.9 1.2 1.4 1.7.3.3.8.5 1.3.3.3-.5.2-.9-.1-1.2-.7-1-1.5-1.9-2.2-2.8-.2-.3-.5-.6-.6-1-.2-.5 0-1 .5-1.3.5-.3 1.1-.3 1.5.1.3.3.5.7.7 1.1.1.6.3 1.2.5 1.6.2.3.6.6.8.5.3-.1.6-.5.6-.8.3-.8 0-1.6-.8-2.1l-.9-.6c-.4-.5-.5-1-.2-1.4.4-.4 1-.4 1.5-.1.3.2.4.4.7.6.2.2.4.4.7.6.2-.2.3-.3.4-.5l.3-.6c.4-.7.9-.9 1.5-.7.6.2 1 1 .7 1.6-.2.5-.5.9-.8 1.3-1.1 1.1-1.6 2.5-1.8 4v.9c.4 0 .6 0 .8-.1.6-.1 1.1 0 1.3.5.3.6-.2.9-.6 1.1-.3.2-.7.3-1 .5-.6.4-1 .9-.9 1.6 0 .6.5.9 1.1.7.4-.1.8-.4 1.1-.7.8-.9 1-2.1.9-3.3-.1-.9-.3-1.7-.3-2.6 0-.8.1-1.6.2-2.4 0-.2.2-.5.4-.7.3-.3.7-.6 1.2-.3.5.2.5.6.4 1-.3.5-.4.9-.5 1.3z" fill="#94e6fb"/></symbol><symbol class="svg-sprite" id="crab" viewBox="0 0 22 22"><defs><path id="a" d="M.1 2.5h21.8v16.3H.1z"/></defs><clipPath id="b"><use xmlns:xlink="http://www.w3.org/1999/xlink" xlink:href="#a" overflow="visible"/></clipPath><g clip-path="url(#b)"><path d="M15.8 9.1c-.1-.2-.3-.5-.4-.7.3-.6 1-.8 1.5-1.1.4 0 .5.1.6.4.1.1.1.3.1.4.1.8-.1 1.6-.7 2.3 0 .1.1.2.2.4.6.1.7.2 2.8-.8.2.1.2.3.1.5-.2.2-.4.4-.7.6-.4.2-.9.3-1.4.5-.2.1-.4.1-.6.1.2.2.3.4.4.6l-.4.4c.5.1.9 0 1.3-.1.6-.1 1.1-.3 1.6-.5.1 0 .3-.2.4 0 0 .3-.2.4-.4.6-.4.2-.8.4-1.2.5-.4.1-.9.2-1.4.2-.3 0-.7 0-1-.2-.3.2-.5.4-.8.6.2.3.5.3.7.4.8.2 1.6.3 2.4.5.6.1 1.2.2 1.9.3.2.1.5.1.7.3.2.1.3.2.3.4-.4 0-.8-.1-1.2-.1H20c-.7.1-1.4 0-2-.1-.5-.1-1.1-.3-1.6-.4-.5-.2-1-.4-1.6-.7-.2.1-.5.2-.7.3.1.3.4.4.6.5.6.2 1.2.5 1.9.7.8.2 1.3.7 1.5 1.5.1.4.1.8.2 1.2 0 .2 0 .2-.4.3-.1-.2-.2-.4-.4-.5l-.9-1.2c-.3-.3-.6-.5-1.1-.6-.6-.1-1.2-.3-1.7-.5s-.9-.5-1-1.1c-.3.1-.5.2-.7.3-.7.5-1.5.4-2.2 0l-.6-.3c-.1.1-.1.2-.2.2-.2.4-.5.6-.9.8-.6.3-1.3.5-2 .6-.3.1-.5.1-.7.4-.4.4-.7.9-1 1.3-.1.2-.3.4-.4.6-.3 0-.4-.2-.4-.4 0-.4.1-.8.2-1.2.1-.3.1-.5.2-.8.1-.4.3-.6.7-.7.8-.2 1.5-.5 2.3-.8.3-.1.6-.2.8-.4-.3-.1-.6-.3-.8-.4-1.2.8-2.5 1-3.9 1.3h-.3c-.9 0-1.8-.1-2.7.1-.1-.3.1-.4.3-.5l1.2-.3c1.2-.2 2.3-.4 3.4-.6.4-.1.7-.2 1-.5-.3-.2-.5-.4-.8-.7-.5.3-1 .2-1.6.1-.7-.1-1.4-.3-2-.7-.2-.2-.5-.3-.4-.7.4.1.7.3 1.1.4.3.1.7.2 1.1.3.4.1.8.1 1.2.1-.1-.1-.3-.2-.4-.3.2-.2.3-.4.5-.6-.2 0-.3-.1-.5-.1-.5-.2-1-.3-1.5-.5-.3-.1-.5-.3-.7-.5-.1-.1-.2-.3 0-.5.9.4 1.7.9 2.8.8.1-.1.1-.3.2-.4-.5-.4-.6-1-.7-1.6-.1-.5 0-1.1.5-1.5.6.1 1 .4 1.4.7.2.1.3.3.4.4-.2.3-.4.5-.5.8v-.1c.1 0 .1 0 .2-.1 1-.6 2-.8 3.2-.9h2.9c1.2 0 2.2.3 3.2.9 0 .1 0 .1.1.1 0 .1 0 0 0 0z" fill="#94e6fb"/><path d="M9 6.6c0 .2 0 .3-.1.5-.4.4-1.7.9-2.3.9-.4-.3-.9-.6-1.3-.9-.3-.1-.4-.4-.3-.7l.3-.9c.1-.4.2-.7.7-.8v-.4c.2-.7.7-1.2 1.4-1.5.7-.2 1.4-.3 2.2-.3-.8.8-1.7 1.4-2.3 2.4.5.1.9.2 1.1.8.8-.8 1.2-1.8 1.7-2.7.6.8.6 2.2.1 2.9-.3.3-.7.6-1.2.7zm3.3-4.1c.9-.1 1.7 0 2.4.4.7.3 1.1.9 1.2 1.6v.2l.6.3c.2.5.4 1 .5 1.5.1.3-.1.5-.3.6-.4.3-.9.6-1.4.9-.2 0-.4-.1-.6-.1-.4-.1-.7-.3-1.1-.5-.4-.2-.7-.3-.6-.8-1.4-.6-1.7-1.7-1.5-2.7.1-.4.2-.7.3-1.1.5.9.9 1.9 1.7 2.7.2-.5.5-.7 1.1-.7-.5-.9-1.4-1.5-2.3-2.3z" fill="#94e6fb"/><path d="M15.8 9.1s0 .1 0 0c0 .1 0 0 0 0zm-9.6 0s0 .1 0 0c0 .1 0 0 0 0z" fill="#fff"/></g></symbol><symbol class="svg-sprite" id="cross" viewBox="0 0 47 47"><path d="M19.9 27.1c-.3-.3-.3-.9 0-1.2l5.9-5.9c.3-.3.9-.3 1.2 0 .3.3.3.9 0 1.2l-5.9 5.9c-.3.3-.8.3-1.2 0z" fill="#083d63"/><path d="M19.9 19.9c.3-.3.9-.3 1.2 0l5.9 5.9c.3.3.3.9 0 1.2-.3.3-.9.3-1.2 0l-5.9-5.9c-.3-.3-.3-.8 0-1.2z" fill="#083d63"/></symbol><symbol class="svg-sprite" id="facebook" viewBox="0 0 7 13"><path d="M4.647 12.537V6.895h1.86l.331-2.507h-2.19V3.197c0-.69 0-1.316.995-1.316h.996V.063S5.776 0 4.913 0C3.12 0 1.992 1.066 1.992 2.946v1.442H0v2.507h1.992v5.642h2.655z"/></symbol><symbol class="svg-sprite" id="fish" viewBox="0 0 19 18.7"><path d="M18.3 10.1c-.3 0-.5 0-.8-.1-.3 0-.6 0-1 .1h-.1c.7.5 1.1 1.1 1.3 1.9.3 1.6-.7 3.2-2.2 3.9-.8.3-1.5.5-2.4.3-.3 0-.7-.1-1-.2-.2-.1-.4-.1-.7 0-.4 0-.8.2-1.2.3-.4.1-.9.2-1.3.3-.2.1-.5.1-.7 0h-.1c.6-.5 1.2-.9 1.9-1.2-.3-.7-.7-1.4-1-2.1h.3c.3.1.5.2.7.4.5.4.9.8 1.3 1.3.1.1.1.2.2.3l.1.1c.9.1 1.7.1 2.6 0 .2 0 .3 0 .5-.1.4-.1.5-.3.5-.7 0-.3-.1-.5-.3-.7-.3-.5-.6-.9-1-1.3.1-.1.1 0 .1.1v1c-.6-.2-1-.6-1-1.2 0-.2 0-.4.1-.6 0-.3 0-.3-.2-.5-.8-.5-1.5-.9-2.2-1.5-.3-.2-.5-.5-.7-.8-.2-.1-.3-.3-.3-.5s0-.4.2-.5c.2-.2.4-.2.7-.2.5 0 1 .1 1.4.2 1.1.3 2.1.7 3.1 1.2.1.1.3.1.4.1.5 0 1 .1 1.5.1.3 0 .6.1.9.2.2.1.3.2.4.4z" fill="#94e6fb"/><path d="M.4 8c.4.1.8.1 1.1.2h.8c-.7-.6-1-1.3-1-2.2 0-1.7 1.5-3.3 3.4-3.6.9-.1 1.7 0 2.5.3.5.2 1.1.3 1.7.2.6-.1 1.1-.2 1.7-.2h.8c.1 0 .2.1.3.1 0 0-.1 0-.1.1-.6.4-1.3.7-2 .9-.1 0-.1 0-.1.1.2.7.4 1.4.7 2.1v.1C10.1 6 10 6 10 6c-.2 0-.3-.1-.5-.2-.3-.3-.6-.6-.8-.9-.3-.3-.6-.7-.8-1.1l-.1-.1c-.9-.1-1.7-.3-2.5-.3h-.6c-.5.1-.7.3-.7.6 0 .2.1.5.1.7.2.5.5 1 .8 1.4.2 0 .2-.1.3-.2 0-.2.1-.4.1-.6V5c.6.3.9.8.8 1.4-.1.2-.1.3-.1.5v.2c0 .1 0 .2.1.2.6.5 1.3 1 1.8 1.6.3.3.6.7.9 1.1.1.1.1.3.2.5.1.3-.1.6-.5.7-.3.1-.6.1-.9 0-.6-.2-1.1-.4-1.6-.6-.9-.4-1.7-.9-2.5-1.4-.1 0-.2-.1-.4-.1-.5-.1-1.1-.2-1.6-.4-.3 0-.5-.2-.8-.3-.1 0-.3-.2-.3-.4 0 .1 0 0 0 0z" fill="#94e6fb"/></symbol><symbol fill="none" class="svg-sprite" id="further-education" viewBox="0 0 24 18"><path d="M20.854 4.802c-2.596.727-5.073 1.4-7.522 2.14a4.37 4.37 0 01-2.65 0C7.402 5.968 4.108 5.077.816 4.144.629 4.089.415 4.06.24 3.965.134 3.91 0 3.732 0 3.622c0-.123.134-.274.24-.356.095-.083.255-.096.376-.124A1197.53 1197.53 0 0111.51.07a1.66 1.66 0 01.897-.014c3.655 1.016 7.309 2.045 10.95 3.087.24.069.428.316.629.48-.215.151-.415.37-.656.467-.55.22-1.325.22-1.633.617-.281.37-.094 1.139-.107 1.729a56.25 56.25 0 000 2.126c0 .632-.12 1.263.548 1.757.469.356.308 1.083-.12 1.591-.174.206-.294.549-.268.81.174 1.495.388 2.99.616 4.486.08.562-.067.795-.656.795-2.048-.013-1.713.138-1.486-1.77.12-1.07.308-2.126.455-3.182.067-.467.12-.878-.334-1.262-.509-.44-.362-1.18.134-1.702.187-.192.348-.521.361-.782.027-1.454.013-2.922.013-4.5z" fill="#94E6FB"/><path d="M19.355 9.933c-.254.274-.455.617-.723.727a242.13 242.13 0 01-6.237 2.264 1.426 1.426 0 01-.83 0c-2.088-.727-4.163-1.51-6.238-2.236-.441-.151-.642-.426-.535-.865.228-.974.482-1.934.736-2.894.107-.37.321-.453.71-.343 1.686.507 3.386.987 5.086 1.426.415.11.883.11 1.298 0 1.687-.439 3.36-.905 5.02-1.413.442-.137.683-.04.817.384.294.933.575 1.866.896 2.95z" fill="#94E6FB"/></symbol><symbol fill="none" class="svg-sprite" id="hands-reaching" viewBox="0 0 21 20"><g clip-path="url(#clip0)" fill="#94E6FB"><path d="M9.532 15.203c.041-1.407.082-2.817.128-4.224.003-.086-.02-.138-.094-.183-.182-.105-.354-.224-.535-.329-.647-.371-1.082-.926-1.38-1.581-.325-.717-.753-1.35-1.37-1.848-.172-.14-.378-.242-.565-.364-.07-.045-.15-.088-.198-.15-.1-.126-.17-.274-.078-.43a.549.549 0 01.482-.294c.562 0 1.068.188 1.535.484A3.76 3.76 0 018.532 7.35c.034.048.09.079.136.12.038-.046.096-.084.113-.134.201-.571.296-1.15.117-1.748-.32-1.066-.632-2.133-.947-3.2a1.246 1.246 0 01-.046-.21c-.039-.32.126-.547.445-.62.286-.065.538.076.644.369.388 1.069.773 2.138 1.162 3.207.034.093.034.233.192.214.116-.012.222-.176.22-.317-.02-1.243-.041-2.483-.06-3.726-.008-.402.225-.652.622-.674.247-.014.43.081.513.312.063.174.104.362.109.543.031 1.221.053 2.443.077 3.664 0 .036-.004.074.005.107.017.053.049.103.073.153.048-.026.106-.04.14-.079a.42.42 0 00.085-.166c.315-1.088.627-2.177.942-3.262.036-.124.082-.25.148-.362a.531.531 0 01.627-.236c.164.05.227.183.259.331.06.276.05.555-.015.826-.254 1.062-.513 2.122-.767 3.184-.015.057-.034.116-.03.173.003.046.037.088.059.131.038-.023.092-.04.116-.073.324-.489.644-.98.966-1.47.189-.285.378-.573.569-.857.056-.083.111-.171.189-.23a.734.734 0 01.3-.16c.344-.06.574.167.533.507-.037.302-.172.569-.322.829-.393.678-.785 1.36-1.182 2.038a1.1 1.1 0 00-.152.528c-.022.507-.034 1.017-.095 1.52a4.304 4.304 0 01-.533 1.609 2.732 2.732 0 01-.668.807c-.036.029-.055.102-.053.152.027.846.058 1.688.087 2.534.066 1.83.133 3.664.204 5.495.002.09-.025.124-.112.143a11.94 11.94 0 01-3.69.262c-.106-.01-.11-.058-.108-.138.043-1.41.087-2.827.128-4.243zm1.828-6.134c.012-.004.022-.012.034-.016 0-.022.002-.046 0-.067-.06-.583-.33-1.045-.826-1.371-.414-.272-.881-.377-1.37-.415-.03-.002-.056 0-.085 0 1.082.236 1.903.772 2.247 1.87z"/><path d="M5.791 18.957c-.058-.019-.097-.028-.133-.042a11.67 11.67 0 01-2.271-1.139.258.258 0 01-.133-.218c-.1-1.127-.206-2.253-.305-3.38-.007-.082-.039-.128-.114-.159-.092-.038-.182-.085-.274-.126-.45-.188-.772-.512-1.016-.917-.22-.364-.487-.683-.843-.92a3.128 3.128 0 00-.477-.253c-.138-.065-.237-.177-.225-.293.012-.117.153-.248.293-.264a1.71 1.71 0 01.794.116c.356.134.644.357.893.636.027.03.068.048.105.069.021-.036.055-.07.062-.107.073-.355.088-.707-.06-1.05-.269-.617-.533-1.233-.799-1.853A1.107 1.107 0 011.23 8.9c-.049-.197.034-.35.223-.416.172-.062.331.004.42.18.316.617.626 1.236.938 1.855.029.06.043.16.143.129.092-.031.123-.112.109-.214-.104-.743-.206-1.486-.308-2.229-.036-.264.068-.428.31-.483.145-.034.264.002.334.128.058.105.104.227.121.343.11.722.208 1.445.31 2.17.005.03.003.066.015.092.019.043.048.081.072.121.034-.04.087-.076.1-.123.029-.103.038-.21.055-.317.097-.6.191-1.2.29-1.798a.804.804 0 01.08-.247c.066-.129.19-.167.327-.155.126.012.19.102.204.207.026.19.053.388.034.576-.063.636-.146 1.27-.216 1.905-.007.057.02.117.032.176.038-.043.09-.08.113-.13.24-.472.473-.948.712-1.42.037-.071.078-.14.129-.2.092-.11.222-.133.363-.08.111.042.174.133.15.28-.03.174-.073.35-.138.515-.18.442-.378.876-.56 1.319a.912.912 0 00-.058.333c.008.376.044.752.034 1.129a2.213 2.213 0 01-.264.983c-.048.095-.099.197-.176.269-.121.11-.124.226-.1.371.25 1.54.492 3.081.734 4.622.017.047.022.097.03.166zm-1.934-6.226c-.056-.602-.693-1.005-1.47-.935.305.04.6.112.864.269.274.16.463.39.606.666zM16.3 18.562c.02-.145.032-.257.046-.371.167-1.286.334-2.574.504-3.86.012-.09-.007-.148-.085-.2-.356-.238-.663-.519-.842-.912a3.274 3.274 0 01-.138-.343 2.621 2.621 0 00-.598-1.01 2.691 2.691 0 00-.359-.3c-.128-.092-.196-.22-.157-.328.039-.105.203-.193.341-.176.238.029.453.114.654.238.322.195.555.47.736.788.02.036.056.062.082.093.03-.03.07-.055.085-.09.133-.305.228-.62.162-.958-.12-.63-.24-1.264-.358-1.895a.856.856 0 01-.022-.176c0-.183.104-.302.284-.329.174-.026.312.065.358.243.16.624.317 1.248.477 1.87.005.023.005.05.02.068.028.046.065.086.098.129.049-.052.131-.098.14-.157.035-.203.042-.41.059-.617.044-.514.085-1.028.128-1.543.022-.25.148-.374.378-.378.157-.003.269.064.305.216.027.117.034.243.027.365-.051.688-.11 1.376-.16 2.064-.005.055.024.112.036.169.048-.048.116-.088.138-.145.242-.593.477-1.188.714-1.784a1.33 1.33 0 01.112-.223.307.307 0 01.358-.131c.107.03.174.116.165.273-.01.16-.03.327-.08.48-.196.587-.407 1.17-.608 1.756-.017.05-.005.11-.005.167.044-.034.097-.06.13-.1.323-.393.64-.788.96-1.181a.913.913 0 01.152-.152c.111-.086.242-.084.36-.005.112.074.12.185.078.285a2.478 2.478 0 01-.227.443c-.254.372-.528.731-.785 1.103a.94.94 0 00-.14.345c-.063.307-.087.624-.167.924-.136.497-.36.95-.809 1.262-.031.021-.043.09-.046.135-.05.77-.101 1.536-.145 2.305a.384.384 0 01-.167.314c-.627.479-1.293.896-2.005 1.24-.05.03-.101.05-.184.089zm1.642-5.44c.1-.517-.535-1.155-1.126-1.131.576.197.983.538 1.126 1.13z"/></g><defs><clipPath id="clip0"><path fill="#fff" transform="translate(0 .63)" d="M0 0h21v19H0z"/></clipPath></defs></symbol><symbol fill="none" class="svg-sprite" id="icon-border" viewBox="0 0 52 52"><circle opacity=".3" cx="26" cy="26" r="25" stroke="#E5FAFF" stroke-dasharray="1 2"/></symbol><symbol class="svg-sprite" id="info" viewBox="0 0 47 47"><path d="M24.6 20.4c.4 0 .6.2.6.6v10.4c0 .4-.2.6-.6.6h-2.1c-.4 0-.6-.2-.6-.6V21c0-.4.2-.6.6-.6h2.1zm0-4.9c.4 0 .6.2.6.6V18c0 .4-.2.6-.6.6h-2.1c-.4 0-.6-.2-.6-.6v-1.9c0-.4.2-.6.6-.6h2.1z" fill="#94e6fb"/></symbol><symbol class="svg-sprite" id="instagram" viewBox="0 0 13 13"><path d="M4.292 6.495c0-1.157.967-2.121 2.128-2.121s2.128.964 2.128 2.121A2.143 2.143 0 016.42 8.617c-1.16 0-2.128-.964-2.128-2.122zm-1.16 0c0 1.8 1.482 3.28 3.288 3.28 1.806 0 3.29-1.48 3.29-3.28 0-1.8-1.42-3.343-3.29-3.343s-3.289 1.48-3.289 3.343zm5.997-3.471c0 .45.322.771.774.771.451 0 .774-.321.774-.771a.783.783 0 00-.774-.772c-.387 0-.774.386-.774.772zM3.84 11.703c-.645 0-.968-.129-1.226-.193a1.929 1.929 0 01-1.225-1.221c-.387-1.03-.258-5.658-.194-6.43 0-.707.194-1.414.71-1.928.645-.643 1.483-.964 7.158-.707.71.064 1.42.193 1.935.707.645.643.967 1.479.71 7.136 0 .643-.13.964-.194 1.222-.645 1.478-2 1.671-7.674 1.414zM3.776.067c-1.032.064-2 .321-2.709 1.028C.358 1.867.1 2.767.036 3.795c0 .643-.194 5.593.322 6.88a2.99 2.99 0 001.87 1.864c.387.193.839.321 1.548.321 5.74.257 7.868.129 8.77-2.186.13-.385.259-.9.323-1.543.258-5.721-.064-7.007-1.031-7.972C10.998.324 10.096-.19 3.776.067z"/></symbol><symbol fill="none" class="svg-sprite" id="journey-prompt" viewBox="0 0 31 32"><path d="M27.315 13.777c0 1.833-.342 3.53-1.027 5.09l.617.272C27.589 17.51 28 15.678 28 13.845v-.068h-.685zm-3.97-9.297c1.232 1.221 2.259 2.647 2.944 4.275l.616-.271c-.685-1.697-1.78-3.19-3.081-4.48l-.48.476zM13.897.61c1.849 0 3.56.34 5.135 1.018l.274-.61C17.663.338 15.883 0 13.966 0h-.069v.611zM4.518 4.48c1.233-1.222 2.67-2.24 4.313-2.85l-.274-.611c-1.711.678-3.286 1.696-4.518 2.986l.48.475zM.616 13.845c0-1.832.342-3.529 1.027-5.09l-.616-.271C.342 10.113 0 11.877 0 13.777l.616.068zm3.902 9.366a13.11 13.11 0 01-2.875-4.276l-.616.272a12.826 12.826 0 003.08 4.48l.411-.476zm9.448 3.869c-1.849 0-3.56-.34-5.135-1.018l-.274.61c1.643.679 3.492 1.018 5.34 1.018l.069-.61zm9.447-3.869a13.24 13.24 0 01-4.313 2.85l.274.611c1.712-.678 3.286-1.764 4.518-2.986l-.479-.475zm-.205-12.214c.274.95.41 1.9.41 2.85 0 .747-.068 1.426-.273 2.104l.684.136c.137-.746.274-1.493.274-2.307a9.482 9.482 0 00-.48-3.054l-.615.271zm-7.12-6.515a9.354 9.354 0 014.45 2.307l.479-.475c-1.37-1.221-3.012-2.104-4.792-2.443l-.137.61zm-9.242 2.85C7.94 6.111 9.379 5.228 11.09 4.686l-.205-.68a10.086 10.086 0 00-4.518 2.851l.479.475zm-2.122 9.366c-.274-.95-.411-1.9-.411-2.85 0-.747.068-1.426.274-2.104l-.685-.136c-.137.746-.274 1.493-.274 2.24 0 1.018.137 2.036.48 3.054l.616-.204zm7.12 6.515c-1.644-.407-3.218-1.154-4.45-2.307l-.48.475c1.37 1.221 3.012 2.104 4.792 2.51l.137-.678zm9.241-2.85c-1.095 1.221-2.533 2.104-4.244 2.647l.205.678a10.085 10.085 0 004.519-2.85l-.48-.475z" fill="#94E6FB"/><path d="M30.93 20.778c0 .389-.209.555-.524.722-1.994.943-3.987 1.886-5.981 2.774a1.479 1.479 0 00-.682.721c-.84 2.109-1.732 4.162-2.571 6.27-.158.334-.315.667-.735.667-.42-.056-.735-.278-.892-.722-.367-1.054-.735-2.108-1.05-3.163-1.469-4.272-2.938-8.6-4.407-12.873-.052-.167-.157-.389-.157-.555 0-.555.42-.833.944-.61 1.207.443 2.414.943 3.62 1.386 3.883 1.443 7.766 2.942 11.596 4.384.578.167.84.5.84 1z" fill="#E5FAFF"/></symbol><symbol fill="none" class="svg-sprite" id="links" viewBox="0 0 20 21"><path d="M19.999 5.94c-.031.145-.059.29-.09.434a3.828 3.828 0 01-1.06 1.898c-1.749 1.75-3.493 3.503-5.246 5.244-1.31 1.3-3.144 1.514-4.705.575a2.033 2.033 0 01-.395-.285c-.665-.685-1.326-1.382-1.976-2.059.536-.536 1.123-1.123 1.721-1.726.497.501.998 1.022 1.518 1.519.211.203.446.415.712.524.516.215.978.043 1.365-.344l1.85-1.851c1.115-1.115 2.23-2.227 3.34-3.342.486-.485.584-1.076.267-1.612a1.528 1.528 0 00-.258-.317c-.54-.544-1.084-1.088-1.628-1.632-.606-.602-1.333-.599-1.944.004-.567.564-1.13 1.131-1.697 1.698-.075.075-.13.122-.247.06a4.952 4.952 0 00-2.6-.623c-.032 0-.063-.004-.122-.008l.082-.102c1.01-1.005 2.01-2.019 3.032-3.013.563-.544 1.255-.845 2.034-.947.035-.004.07-.023.105-.035h.782c.028.012.055.031.086.035.841.11 1.565.466 2.168 1.057.614.602 1.216 1.213 1.818 1.823.552.56.888 1.229 1.025 2 .016.082.035.16.055.242.008.263.008.525.008.783z" fill="#94E6FB"/><path d="M11.164 15.903a747.384 747.384 0 01-3.052 3.087 2.95 2.95 0 01-.555.427c-1.51.92-3.297.747-4.588-.462-.65-.61-1.283-1.24-1.893-1.89-1.46-1.561-1.432-3.796.07-5.318a745.067 745.067 0 015.273-5.27c1.404-1.39 3.434-1.52 4.995-.35.031.024.066.044.094.071l1.975 2.063-1.725 1.725c-.544-.544-1.103-1.1-1.654-1.663-.392-.399-.85-.587-1.393-.387-.2.074-.395.203-.548.356-1.74 1.73-3.473 3.463-5.206 5.2-.587.587-.583 1.327.004 1.918.536.54 1.076 1.076 1.615 1.616.618.614 1.346.618 1.956.008.567-.564 1.13-1.131 1.698-1.698.066-.067.113-.126.23-.063a5.02 5.02 0 002.64.626c.024-.004.048.004.064.004z" fill="#94E6FB"/></symbol><symbol fill="none" class="svg-sprite" id="loader-enter-site-logo" viewBox="0 0 225 89"><g clip-path="url(#clip0)"><path d="M222.35 79.115h2.15V89h-1.986c-1.457-2.05-2.988-4.187-4.518-6.324-.091.035-.2.052-.292.087V89H215.5v-9.746c1.366-.487 2.04-.296 2.787.764 1.002 1.407 1.968 2.832 2.988 4.24.219.294.51.52.765.798.11-.052.201-.087.31-.139v-5.802z" fill="#D6F7FF"/><path d="M222.35 79.115h2.15V89h-1.986c-1.457-2.05-2.988-4.187-4.518-6.324-.091.035-.2.052-.292.087V89H215.5v-9.746c1.366-.487 2.04-.296 2.787.764 1.002 1.407 1.968 2.832 2.988 4.24.219.294.51.52.765.798.11-.052.201-.087.31-.139v-5.802z" fill="url(#paint0_linear)" fill-opacity=".6"/><path d="M157.419 84.79v-5.632h2.081V89h-1.99c-1.497-2.097-3.012-4.21-4.527-6.342-.092.017-.183.052-.274.07v6.237H150.5v-9.703c1.424-.502 2.081-.312 2.848.832.967 1.403 1.917 2.807 2.903 4.176.219.312.584.52.876.762.109-.087.201-.173.292-.243z" fill="#D6F7FF"/><path d="M157.419 84.79v-5.632h2.081V89h-1.99c-1.497-2.097-3.012-4.21-4.527-6.342-.092.017-.183.052-.274.07v6.237H150.5v-9.703c1.424-.502 2.081-.312 2.848.832.967 1.403 1.917 2.807 2.903 4.176.219.312.584.52.876.762.109-.087.201-.173.292-.243z" fill="url(#paint1_linear)" fill-opacity=".6"/><path d="M124.5 83.92c-.036-2.507 2.378-5.03 5.573-4.916 3.104.098 5.445 2.196 5.427 5.047-.018 2.786-2.487 4.965-5.554 4.949-3.05-.016-5.464-2.278-5.446-5.08zm8.55.033c0-1.868-1.18-3.048-3.05-3.048-1.833 0-3.122 1.245-3.14 3.031 0 1.786 1.361 3.147 3.158 3.13 1.815-.016 3.032-1.262 3.032-3.113z" fill="#D6F7FF"/><path d="M124.5 83.92c-.036-2.507 2.378-5.03 5.573-4.916 3.104.098 5.445 2.196 5.427 5.047-.018 2.786-2.487 4.965-5.554 4.949-3.05-.016-5.464-2.278-5.446-5.08zm8.55.033c0-1.868-1.18-3.048-3.05-3.048-1.833 0-3.122 1.245-3.14 3.031 0 1.786 1.361 3.147 3.158 3.13 1.815-.016 3.032-1.262 3.032-3.113z" fill="url(#paint2_linear)" fill-opacity=".6"/><path d="M212.5 84.093c-.05 2.78-2.296 4.94-5.091 4.907-2.795-.033-4.958-2.29-4.908-5.103.033-2.634 2.113-5.038 5.257-4.89 2.695.147 4.775 2.29 4.742 5.086zm-5.008-3.173c-1.764 0-2.845 1.129-2.862 3.026-.016 1.782 1.032 3.091 2.879 3.124 1.613.032 2.811-1.309 2.828-3.091 0-1.816-1.165-3.059-2.845-3.059z" fill="#D6F7FF"/><path d="M212.5 84.093c-.05 2.78-2.296 4.94-5.091 4.907-2.795-.033-4.958-2.29-4.908-5.103.033-2.634 2.113-5.038 5.257-4.89 2.695.147 4.775 2.29 4.742 5.086zm-5.008-3.173c-1.764 0-2.845 1.129-2.862 3.026-.016 1.782 1.032 3.091 2.879 3.124 1.613.032 2.811-1.309 2.828-3.091 0-1.816-1.165-3.059-2.845-3.059z" fill="url(#paint3_linear)" fill-opacity=".6"/><path d="M163.5 88.982v-9.82c.258-.053.499-.157.741-.157 1.291 0 2.583-.034 3.874.07 2.773.224 4.22 1.902 4.375 4.685.189 3.441-2.274 5.274-5.029 5.24-1.292-.035-2.566-.018-3.961-.018zm2.222-7.954v5.88c1.463.483 3.306.051 4.012-.917.758-1.003.775-2.836.052-3.908-.672-1.003-2.411-1.47-4.064-1.055z" fill="#D6F7FF"/><path d="M163.5 88.982v-9.82c.258-.053.499-.157.741-.157 1.291 0 2.583-.034 3.874.07 2.773.224 4.22 1.902 4.375 4.685.189 3.441-2.274 5.274-5.029 5.24-1.292-.035-2.566-.018-3.961-.018zm2.222-7.954v5.88c1.463.483 3.306.051 4.012-.917.758-1.003.775-2.836.052-3.908-.672-1.003-2.411-1.47-4.064-1.055z" fill="url(#paint4_linear)" fill-opacity=".6"/><path d="M138.5 79h2.362c.055.371.127.691.127 1.012.019 1.686 0 3.372.037 5.058.018 1.231.763 1.889 2.017 1.906 1.308 0 2.071-.675 2.089-1.94.037-1.618.018-3.254.018-4.89v-1.112h2.217c.055.135.109.236.109.354 0 1.99.073 3.98-.036 5.969-.091 1.922-1.327 3.136-3.362 3.541-1.998.405-4.015-.421-4.924-2.023-.091-.152-.2-.304-.2-.456-.181-2.428-.309-4.856-.454-7.419z" fill="#D6F7FF"/><path d="M138.5 79h2.362c.055.371.127.691.127 1.012.019 1.686 0 3.372.037 5.058.018 1.231.763 1.889 2.017 1.906 1.308 0 2.071-.675 2.089-1.94.037-1.618.018-3.254.018-4.89v-1.112h2.217c.055.135.109.236.109.354 0 1.99.073 3.98-.036 5.969-.091 1.922-1.327 3.136-3.362 3.541-1.998.405-4.015-.421-4.924-2.023-.091-.152-.2-.304-.2-.456-.181-2.428-.309-4.856-.454-7.419z" fill="url(#paint5_linear)" fill-opacity=".6"/><path d="M180.819 79c1.221 3.298 2.424 6.561 3.681 9.965h-2.319c-.283-.702-.566-1.421-.885-2.193h-3.681c-.283.702-.566 1.438-.885 2.228h-2.23c1.274-3.368 2.513-6.65 3.77-9.983.814-.017 1.593-.017 2.549-.017zm-.054 5.93c-.424-1.298-.778-2.421-1.15-3.562-.106 0-.212-.017-.301-.017-.389 1.14-.796 2.28-1.239 3.561.956.018 1.735.018 2.69.018z" fill="#D6F7FF"/><path d="M180.819 79c1.221 3.298 2.424 6.561 3.681 9.965h-2.319c-.283-.702-.566-1.421-.885-2.193h-3.681c-.283.702-.566 1.438-.885 2.228h-2.23c1.274-3.368 2.513-6.65 3.77-9.983.814-.017 1.593-.017 2.549-.017zm-.054 5.93c-.424-1.298-.778-2.421-1.15-3.562-.106 0-.212-.017-.301-.017-.389 1.14-.796 2.28-1.239 3.561.956.018 1.735.018 2.69.018z" fill="url(#paint6_linear)" fill-opacity=".6"/><path d="M122.5 79v1.778h-4.095v2.465c.984.07 1.984.123 3.047.194v1.725h-3.111V89H116.5v-9.982c1.984-.018 3.952-.018 6-.018z" fill="#D6F7FF"/><path d="M122.5 79v1.778h-4.095v2.465c.984.07 1.984.123 3.047.194v1.725h-3.111V89H116.5v-9.982c1.984-.018 3.952-.018 6-.018z" fill="url(#paint7_linear)" fill-opacity=".6"/><path d="M187.945 88.982v-8.198H184.5V79h9v1.696c-1.1.053-2.164.106-3.301.177V89c-.739-.018-1.37-.018-2.254-.018z" fill="#D6F7FF"/><path d="M187.945 88.982v-8.198H184.5V79h9v1.696c-1.1.053-2.164.106-3.301.177V89c-.739-.018-1.37-.018-2.254-.018z" fill="url(#paint8_linear)" fill-opacity=".6"/><path d="M196.5 79h2v10h-2V79z" fill="#D6F7FF"/><path d="M196.5 79h2v10h-2V79z" fill="url(#paint9_linear)" fill-opacity=".6"/><path d="M54.869 79.017h2.138c.164 3.351.329 6.615.493 9.983h-2.174c-.147-2.07-.275-4.088-.42-6.105-.092-.035-.165-.053-.256-.088a614.399 614.399 0 00-2.084 3.491h-1.15c-.713-1.175-1.426-2.333-2.139-3.491-.091.018-.2.035-.292.07-.128 2.018-.256 4.018-.384 6.106H46.5c.183-3.334.347-6.632.512-9.983h2.174c.859 1.474 1.754 2.983 2.814 4.79 1.041-1.72 1.955-3.246 2.869-4.773z" fill="#D6F7FF"/><path d="M54.869 79.017h2.138c.164 3.351.329 6.615.493 9.983h-2.174c-.147-2.07-.275-4.088-.42-6.105-.092-.035-.165-.053-.256-.088a614.399 614.399 0 00-2.084 3.491h-1.15c-.713-1.175-1.426-2.333-2.139-3.491-.091.018-.2.035-.292.07-.128 2.018-.256 4.018-.384 6.106H46.5c.183-3.334.347-6.632.512-9.983h2.174c.859 1.474 1.754 2.983 2.814 4.79 1.041-1.72 1.955-3.246 2.869-4.773z" fill="url(#paint10_linear)" fill-opacity=".6"/><path d="M97.5 89h-1.801c-1.315-2.067-2.645-4.15-3.96-6.234-.113.052-.227.086-.324.138v6.079H89.5v-9.795c1.525-.382 1.817-.243 2.564.99.909 1.493 1.85 2.987 2.759 4.48.146.244.21.521.308.8.146-.105.276-.21.422-.33v-6.01H97.5V89z" fill="#D6F7FF"/><path d="M97.5 89h-1.801c-1.315-2.067-2.645-4.15-3.96-6.234-.113.052-.227.086-.324.138v6.079H89.5v-9.795c1.525-.382 1.817-.243 2.564.99.909 1.493 1.85 2.987 2.759 4.48.146.244.21.521.308.8.146-.105.276-.21.422-.33v-6.01H97.5V89z" fill="url(#paint11_linear)" fill-opacity=".6"/><path d="M6.531 83.573c1.085.835 1.931 1.443 1.968 2.609.037 1.322-.81 2.609-2.17 2.73-1.894.174-3.825.035-5.829.035v-9.88c1.95.036 3.88-.312 5.737.297 1.857.608 2.243 2.73.79 4-.128.104-.33.14-.496.209zm-3.88 3.913c.846-.052 1.655-.07 2.446-.156.662-.07.993-.505 1.067-1.114.073-.66-.24-1.2-.883-1.339-.828-.174-1.692-.174-2.611-.243-.019 1.043-.019 1.843-.019 2.852zm2.777-4.609v-1.948c-.975-.07-1.82-.14-2.721-.191v2.435c.919-.105 1.746-.192 2.721-.296z" fill="#D6F7FF"/><path d="M6.531 83.573c1.085.835 1.931 1.443 1.968 2.609.037 1.322-.81 2.609-2.17 2.73-1.894.174-3.825.035-5.829.035v-9.88c1.95.036 3.88-.312 5.737.297 1.857.608 2.243 2.73.79 4-.128.104-.33.14-.496.209zm-3.88 3.913c.846-.052 1.655-.07 2.446-.156.662-.07.993-.505 1.067-1.114.073-.66-.24-1.2-.883-1.339-.828-.174-1.692-.174-2.611-.243-.019 1.043-.019 1.843-.019 2.852zm2.777-4.609v-1.948c-.975-.07-1.82-.14-2.721-.191v2.435c.919-.105 1.746-.192 2.721-.296z" fill="url(#paint12_linear)" fill-opacity=".6"/><path d="M76.123 85.403a48.11 48.11 0 00-1.508.07V89H72.5v-9.887c2.06.017 4.101-.47 6.032.452 1.729.834 2.06 3.406.699 4.796-.22.225-.496.417-.864.73.698 1.268 1.379 2.502 2.133 3.874h-2.428c-.588-1.077-1.232-2.259-1.949-3.562zm-1.434-4.326v2.328c1.066.452 2.243.295 2.74-.33.441-.556.441-1.13-.019-1.668-.515-.643-1.673-.782-2.721-.33z" fill="#D6F7FF"/><path d="M76.123 85.403a48.11 48.11 0 00-1.508.07V89H72.5v-9.887c2.06.017 4.101-.47 6.032.452 1.729.834 2.06 3.406.699 4.796-.22.225-.496.417-.864.73.698 1.268 1.379 2.502 2.133 3.874h-2.428c-.588-1.077-1.232-2.259-1.949-3.562zm-1.434-4.326v2.328c1.066.452 2.243.295 2.74-.33.441-.556.441-1.13-.019-1.668-.515-.643-1.673-.782-2.721-.33z" fill="url(#paint13_linear)" fill-opacity=".6"/><path d="M20.681 79h1.864c.033.387.082.724.082 1.044.017 1.684-.016 3.368.017 5.052.016.976.56 1.65 1.32 1.801 1.022.202 1.88-.084 2.21-.859.214-.505.28-1.077.28-1.633.032-1.431.016-2.862.016-4.294 0-.353.066-.707.099-1.111h1.83c.034.32.083.59.083.859 0 1.768-.033 3.536.017 5.304a3.717 3.717 0 01-2.87 3.704c-2.062.472-3.958-.336-4.733-2.07a4.602 4.602 0 01-.363-1.617c-.05-1.819-.033-3.637-.017-5.473.017-.219.1-.438.165-.707z" fill="#D6F7FF"/><path d="M20.681 79h1.864c.033.387.082.724.082 1.044.017 1.684-.016 3.368.017 5.052.016.976.56 1.65 1.32 1.801 1.022.202 1.88-.084 2.21-.859.214-.505.28-1.077.28-1.633.032-1.431.016-2.862.016-4.294 0-.353.066-.707.099-1.111h1.83c.034.32.083.59.083.859 0 1.768-.033 3.536.017 5.304a3.717 3.717 0 01-2.87 3.704c-2.062.472-3.958-.336-4.733-2.07a4.602 4.602 0 01-.363-1.617c-.05-1.819-.033-3.637-.017-5.473.017-.219.1-.438.165-.707z" fill="url(#paint14_linear)" fill-opacity=".6"/><path d="M39.5 89h-7V79h6.655c.017.528.052 1.039.086 1.778h-4.586v2.218h3.38v1.796h-3.38v2.412H39.5V89z" fill="#D6F7FF"/><path d="M39.5 89h-7V79h6.655c.017.528.052 1.039.086 1.778h-4.586v2.218h3.38v1.796h-3.38v2.412H39.5V89z" fill="url(#paint15_linear)" fill-opacity=".6"/><path d="M69.5 89h-2.098c-.224-.648-.464-1.349-.752-2.154h-3.428c-.24.683-.464 1.366-.72 2.119H60.5c1.153-3.38 2.258-6.655 3.379-9.965h2.306A1772.33 1772.33 0 0069.5 89zm-5.83-3.958h2.467c-.384-1.314-.737-2.487-1.073-3.66-.112 0-.208-.018-.32-.018a311.25 311.25 0 01-1.073 3.678z" fill="#D6F7FF"/><path d="M69.5 89h-2.098c-.224-.648-.464-1.349-.752-2.154h-3.428c-.24.683-.464 1.366-.72 2.119H60.5c1.153-3.38 2.258-6.655 3.379-9.965h2.306A1772.33 1772.33 0 0069.5 89zm-5.83-3.958h2.467c-.384-1.314-.737-2.487-1.073-3.66-.112 0-.208-.018-.32-.018a311.25 311.25 0 01-1.073 3.678z" fill="url(#paint16_linear)" fill-opacity=".6"/><path d="M103.688 80.781v2.222h3.447v1.782h-3.43v2.434h4.795V89h-7V79h6.685v1.799c-1.505-.018-2.94-.018-4.497-.018z" fill="#D6F7FF"/><path d="M103.688 80.781v2.222h3.447v1.782h-3.43v2.434h4.795V89h-7V79h6.685v1.799c-1.505-.018-2.94-.018-4.497-.018z" fill="url(#paint17_linear)" fill-opacity=".6"/><path d="M11.5 79h1.756v8.204H17.5V89h-6V79z" fill="#D6F7FF"/><path d="M11.5 79h1.756v8.204H17.5V89h-6V79z" fill="url(#paint18_linear)" fill-opacity=".6"/><path d="M85.5 89h-2V79h2v10z" fill="#D6F7FF"/><path d="M85.5 89h-2V79h2v10z" fill="url(#paint19_linear)" fill-opacity=".6"/><path d="M135.744 19.81c-.871.525-3.351 2.114-6.162 2.43-2.811.33-5.005-.54-6.569-1.26-1.863-.78-3.832-2.235-6.433-3.12-2.6-.869-6.282-1.844-12.039 1.005-1.939.96-2.826 1.365-5.186 2.37C95.267 22.974 88.76 23.049 87 23.034v4.439s5.982.105 10.341-1.86c4.449-2.01 7.095-4.858 12.656-4.858 3.247 0 6.238 1.5 8.447 2.639 2.21 1.14 6.133 3.509 9.184 3.509 4.434 0 8.192-3.899 8.372-4.094a26.65 26.65 0 00-.256-2.999zm-3.532 15.88c-2.57 3.914-6.448 7.363-11.694 9.507-4.539 1.8-9.319 2.759-10.957 5.803-.887-2.204-4.404-3.179-10.206-4.963-5.847-1.77-8.958-4.484-10.596-7.693 1.563-.6 4.313-1.68 5.997-2.354 3.322-1.365 7.771-1.98 10.942-.84 3.187 1.14 7.019 3.644 10.597 4.589 3.066.81 9.424.33 15.827-3.96-.015-.014.03-.044.09-.09zm-.391-19.134c-2.885.12-4.93-.39-6.869-1.125-1.773-.6-4.283-1.844-6.748-2.519s-4.134-.705-6.358-.195c-2.495.57-8.673 4.019-13.152 4.859-3.713.69-9.905.6-11.694.6v2.909c1.804.06 8.207.15 12.16-1.23 3.938-1.38 5.621-2.474 7.154-3.134 1.534-.66 4.224-2.144 7.456-2.084 2.946.045 5.456 1.5 7.455 2.459 2.014.96 5.516 2.729 8.627 2.52 2.571-.166 4.63-1.05 5.577-1.515a22.99 22.99 0 00-.586-2.16c-.767.24-1.849.54-3.022.615zm4.059 8.892a22.335 22.335 0 01-1.218 5.279 14.897 14.897 0 01-2.705 2.249c-6.118 3.884-12.055 2.489-15.782.885-3.713-1.605-6.915-4.14-11.469-4.32-5.17-.209-9.394 3.66-12.355 5.114-1.924.945-3.352 1.35-4.45 1.68-.645-1.98-.856-4.109-.901-6.268 1.398-.03 5.576-.225 8.567-1.65 2.54-1.214 6.238-3.614 8.252-4.168 2.42-.66 5.141-.735 8.012.345 2.871 1.08 6.658 3.583 8.717 4.543 2.06 1.065 5.126 1.785 8.373.96 1.668-.36 4.96-2.115 6.959-4.649zm-45.754-8.772c6.509 0 9.35-.555 12.867-1.634 4.073-1.26 8.086-4.304 13.753-4.08 2.931.12 6.343 1.98 8.267 2.73 1.908.75 3.983 1.454 6.538 1.29a24.098 24.098 0 002.841-.345C130.108 3.885 118.504-.508 113.213.047c2.135 1.379 2.766 3.118 2.766 4.768 0 2.204-1.488 4.423-5.02 4.423-5.171 0-7.41-1.994-10.041-1.964 1.564 1.8.061 6.028-7.876 6.028H87v3.374h3.126z" fill="#E5FAFF"/></g><defs><linearGradient id="paint0_linear" x1="211.304" y1="65.797" x2="232.828" y2="68.421" gradientUnits="userSpaceOnUse"><stop stop-color="#fff"/><stop offset="1" stop-color="#94E6FB"/></linearGradient><linearGradient id="paint1_linear" x1="146.304" y1="65.797" x2="167.828" y2="68.421" gradientUnits="userSpaceOnUse"><stop stop-color="#fff"/><stop offset="1" stop-color="#94E6FB"/></linearGradient><linearGradient id="paint2_linear" x1="119.371" y1="65.797" x2="145.49" y2="69.69" gradientUnits="userSpaceOnUse"><stop stop-color="#fff"/><stop offset="1" stop-color="#94E6FB"/></linearGradient><linearGradient id="paint3_linear" x1="197.837" y1="65.797" x2="221.671" y2="69.026" gradientUnits="userSpaceOnUse"><stop stop-color="#fff"/><stop offset="1" stop-color="#94E6FB"/></linearGradient><linearGradient id="paint4_linear" x1="159.304" y1="65.797" x2="180.828" y2="68.421" gradientUnits="userSpaceOnUse"><stop stop-color="#fff"/><stop offset="1" stop-color="#94E6FB"/></linearGradient><linearGradient id="paint5_linear" x1="134.304" y1="65.797" x2="155.828" y2="68.421" gradientUnits="userSpaceOnUse"><stop stop-color="#fff"/><stop offset="1" stop-color="#94E6FB"/></linearGradient><linearGradient id="paint6_linear" x1="169.837" y1="65.797" x2="193.671" y2="69.026" gradientUnits="userSpaceOnUse"><stop stop-color="#fff"/><stop offset="1" stop-color="#94E6FB"/></linearGradient><linearGradient id="paint7_linear" x1="113.702" y1="65.797" x2="128.17" y2="66.973" gradientUnits="userSpaceOnUse"><stop stop-color="#fff"/><stop offset="1" stop-color="#94E6FB"/></linearGradient><linearGradient id="paint8_linear" x1="180.304" y1="65.797" x2="201.828" y2="68.421" gradientUnits="userSpaceOnUse"><stop stop-color="#fff"/><stop offset="1" stop-color="#94E6FB"/></linearGradient><linearGradient id="paint9_linear" x1="195.567" y1="65.797" x2="200.418" y2="65.928" gradientUnits="userSpaceOnUse"><stop stop-color="#fff"/><stop offset="1" stop-color="#94E6FB"/></linearGradient><linearGradient id="paint10_linear" x1="41.371" y1="65.797" x2="67.49" y2="69.69" gradientUnits="userSpaceOnUse"><stop stop-color="#fff"/><stop offset="1" stop-color="#94E6FB"/></linearGradient><linearGradient id="paint11_linear" x1="85.77" y1="65.797" x2="104.962" y2="67.877" gradientUnits="userSpaceOnUse"><stop stop-color="#fff"/><stop offset="1" stop-color="#94E6FB"/></linearGradient><linearGradient id="paint12_linear" x1="-3.23" y1="65.797" x2="15.962" y2="67.877" gradientUnits="userSpaceOnUse"><stop stop-color="#fff"/><stop offset="1" stop-color="#94E6FB"/></linearGradient><linearGradient id="paint13_linear" x1="68.77" y1="65.797" x2="87.962" y2="67.877" gradientUnits="userSpaceOnUse"><stop stop-color="#fff"/><stop offset="1" stop-color="#94E6FB"/></linearGradient><linearGradient id="paint14_linear" x1="16.77" y1="65.797" x2="35.962" y2="67.877" gradientUnits="userSpaceOnUse"><stop stop-color="#fff"/><stop offset="1" stop-color="#94E6FB"/></linearGradient><linearGradient id="paint15_linear" x1="29.236" y1="65.797" x2="46.075" y2="67.394" gradientUnits="userSpaceOnUse"><stop stop-color="#fff"/><stop offset="1" stop-color="#94E6FB"/></linearGradient><linearGradient id="paint16_linear" x1="56.304" y1="65.797" x2="77.828" y2="68.421" gradientUnits="userSpaceOnUse"><stop stop-color="#fff"/><stop offset="1" stop-color="#94E6FB"/></linearGradient><linearGradient id="paint17_linear" x1="98.236" y1="65.797" x2="115.075" y2="67.394" gradientUnits="userSpaceOnUse"><stop stop-color="#fff"/><stop offset="1" stop-color="#94E6FB"/></linearGradient><linearGradient id="paint18_linear" x1="8.702" y1="65.797" x2="23.17" y2="66.973" gradientUnits="userSpaceOnUse"><stop stop-color="#fff"/><stop offset="1" stop-color="#94E6FB"/></linearGradient><linearGradient id="paint19_linear" x1="82.567" y1="65.797" x2="87.418" y2="65.928" gradientUnits="userSpaceOnUse"><stop stop-color="#fff"/><stop offset="1" stop-color="#94E6FB"/></linearGradient><clipPath id="clip0"><path fill="#fff" d="M0 0h225v89H0z"/></clipPath></defs></symbol><symbol fill="none" class="svg-sprite" id="logo-mark" viewBox="0 0 49 51"><path d="M22.428 50.474c-1.245-1.693-3.12-2.32-4.96-2.963-2.932-1.033-5.95-1.863-8.813-3.048-2.795-1.152-5.13-2.963-6.664-5.656-.069-.118-.12-.254-.24-.508.887-.355 1.723-.71 2.592-1.032 1.738-.66 3.46-1.406 5.25-1.965 4.193-1.32 8.25-.982 12.17 1.152 2.08 1.134 4.278 2.066 6.494 2.93 2.301.897 4.722.744 7.142.355 3.239-.525 6.188-1.761 8.983-3.42.034-.018.102-.018.34-.035-.22.322-.374.56-.545.78-3.323 4.232-7.67 6.992-12.732 8.77-2.336.83-4.62 1.846-6.852 2.896-.819.355-1.415 1.1-2.165 1.744zm24.919-36.033c-1.006.119-1.841.271-2.66.322-2.812.22-5.334-.779-7.857-1.829-1.62-.677-3.239-1.354-4.926-1.829-3.239-.914-6.358-.169-9.392 1-2.318.897-4.568 2.014-6.938 2.76a32.953 32.953 0 01-6.63 1.371c-2.761.27-5.557.17-8.335.237-.17 0-.324-.05-.58-.085v-3.132c.375-.017.682-.05.989-.05 2.045 0 4.108.118 6.136-.052 1.5-.118 3.034-.44 4.449-.965 2.165-.796 2.812-2.133 2.693-4.995.938.254 1.841.423 2.693.728 2.404.813 4.858 1.372 7.415 1.27 2.148-.102 3.903-1.27 4.38-3.014.563-2.032.12-3.844-1.38-5.368-.17-.186-.375-.355-.546-.524-.017-.017-.017-.051-.017-.085 1.108-.745 6.563.677 10.074 2.692 4.67 2.659 8.25 6.333 10.432 11.548z" fill="#E5FAFF"/><path d="M1.018 36.03c-.716-.846-1.244-4.453-.92-5.892 1.141-.136 2.318-.271 3.494-.407 2.693-.338 5.113-1.388 7.431-2.726 1.517-.863 3.069-1.727 4.67-2.387 3.29-1.372 6.631-1.22 9.819.27 2.54 1.186 4.96 2.608 7.431 3.895 5.182 2.71 10.262 2.066 14.574-1.88.375-.338.733-.677 1.313-.964-.205.965-.392 1.913-.597 2.878-.58 2.76-2.88 3.86-5.08 4.91-5.096 2.439-10.141 1.762-15.067-.592-1.603-.762-3.188-1.575-4.79-2.354-4.534-2.218-8.932-1.795-13.227.711a173.982 173.982 0 01-6.75 3.709c-.699.406-1.517.575-2.301.83z" fill="#E5FAFF"/><path d="M.014 27.192v-4.234c.699 0 1.312.017 1.926 0 3.409-.135 6.818-.372 10.022-1.659 2.284-.914 4.5-1.998 6.75-2.997 3.597-1.609 7.296-1.913 10.977-.39 2.012.83 3.92 1.88 5.88 2.828 2.387 1.135 4.876 2.032 7.535 1.389 1.602-.39 3.12-1.135 4.67-1.727.29-.102.546-.254.818-.39.716 1.22.46 2.692-.528 3.505-1.653 1.355-3.426 2.455-5.557 2.963-1.62.39-3.187.305-4.67-.321-2.42-1.033-4.79-2.185-7.142-3.336-2.932-1.44-5.915-2.557-9.29-2.201-2.335.237-4.397 1.185-6.443 2.235-2.25 1.168-4.5 2.404-6.869 3.268-2.54.897-5.25 1.151-8.08 1.067z" fill="#E5FAFF"/><path d="M.014 20.79v-2.725H1.19c2.522-.068 5.045-.119 7.568-.22 4.057-.17 7.67-1.812 11.335-3.336 1.875-.779 3.784-1.54 5.727-2.066 1.722-.457 3.511-.22 5.199.356 2.59.88 5.13 1.93 7.721 2.828 2.727.93 5.523 1.202 8.37.457.204-.051.443-.034.784-.068.187.61.375 1.202.579 1.812-3.614 1.778-7.193 2.066-10.84.49-1.773-.761-3.546-1.49-5.25-2.387-4.177-2.184-8.268-1.828-12.392.187-2.506 1.219-5.097 2.32-7.688 3.352a14.388 14.388 0 01-4.022.965c-2.591.254-5.2.305-7.807.424-.136.017-.239-.017-.46-.068z" fill="#E5FAFF"/></symbol><symbol fill="none" class="svg-sprite" id="logo" viewBox="0 0 147 45"><path d="M42.203 17.187c-.755.455-2.901 1.834-5.334 2.107-2.433.287-4.332-.468-5.685-1.093-1.613-.676-3.318-1.938-5.568-2.706-2.25-.754-5.438-1.6-10.42.872-1.68.833-2.447 1.184-4.49 2.056C7.157 19.906 1.523 19.97 0 19.958v3.864s5.178.09 8.95-1.614c3.851-1.743 6.141-4.215 10.955-4.215 2.81 0 5.399 1.301 7.311 2.29 1.912.989 5.308 3.044 7.949 3.044 3.838 0 7.09-3.382 7.246-3.551a23.455 23.455 0 00-.208-2.59zm-3.07 13.777c-2.225 3.395-5.581 6.388-10.122 8.248-3.929 1.561-8.066 2.394-9.484 5.035-.767-1.913-3.812-2.758-8.833-4.307-5.06-1.535-7.754-3.89-9.172-6.673 1.353-.52 3.734-1.458 5.19-2.043 2.876-1.184 6.727-1.717 9.472-.729 2.758.99 6.075 3.162 9.172 3.981 2.653.703 8.157.287 13.699-3.434 0-.013.026-.04.078-.078zm-.339-16.6c-2.497.104-4.267-.339-5.945-.976-1.535-.52-3.708-1.6-5.841-2.186-2.134-.585-3.578-.611-5.503-.169-2.16.495-7.507 3.487-11.384 4.215-3.213.599-8.573.52-10.121.52v2.524c1.561.053 7.103.13 10.525-1.066 3.408-1.197 4.865-2.147 6.192-2.72 1.327-.572 3.656-1.86 6.453-1.808 2.55.04 4.722 1.301 6.453 2.134 1.743.833 4.774 2.368 7.467 2.186 2.225-.143 4.007-.911 4.827-1.314a19.692 19.692 0 00-.508-1.874c-.65.208-1.6.469-2.614.534zm3.526 7.714a19.419 19.419 0 01-1.054 4.58 12.905 12.905 0 01-2.341 1.951c-5.295 3.37-10.434 2.16-13.66.768-3.214-1.392-5.985-3.591-9.927-3.747-4.475-.182-8.13 3.174-10.694 4.436-1.665.82-2.9 1.171-3.85 1.457-.56-1.717-.742-3.564-.781-5.438 1.21-.026 4.827-.195 7.415-1.43 2.2-1.055 5.4-3.136 7.143-3.617 2.094-.573 4.449-.638 6.934.299 2.485.936 5.763 3.109 7.545 3.942 1.783.923 4.437 1.548 7.247.832 1.43-.312 4.293-1.834 6.023-4.033zm-39.614-7.61c5.633 0 8.092-.482 11.136-1.418 3.526-1.093 7-3.734 11.904-3.539 2.537.104 5.49 1.717 7.155 2.368 1.652.65 3.448 1.262 5.66 1.119a20.798 20.798 0 002.458-.3C37.324 3.384 27.268-.442 22.69.04c1.847 1.197 2.393 2.706 2.393 4.137 0 1.913-1.288 3.838-4.345 3.838-4.475 0-6.413-1.73-8.69-1.704 1.353 1.56.052 5.23-6.817 5.23H0v2.927h2.706zm51.921 18.278h1.951v-3.291h2.928V27.79h-2.928v-1.952h3.838v-1.717h-5.802l.013 8.625zm14.337-3.304a2.834 2.834 0 01-.482.871 2.313 2.313 0 01-.767.599c-.3.143-.638.221-1.028.221-.377 0-.729-.078-1.028-.221a2.362 2.362 0 01-.78-.599 2.691 2.691 0 01-.482-.871 3.087 3.087 0 01-.169-1.054c0-.364.052-.716.17-1.04.116-.326.272-.612.48-.86.209-.247.469-.442.781-.585.312-.143.65-.221 1.028-.221.377 0 .715.065 1.028.221.299.143.56.338.767.585.208.248.365.534.482.86.117.324.169.676.169 1.04 0 .377-.052.728-.17 1.054zm1.873-2.823a4.302 4.302 0 00-.95-1.431 4.486 4.486 0 00-1.418-.963 4.491 4.491 0 00-1.782-.351c-.638 0-1.236.117-1.782.35a4.486 4.486 0 00-1.418.964 4.508 4.508 0 00-.95 1.43 4.594 4.594 0 00-.338 1.796c0 .637.117 1.236.338 1.795.221.56.546 1.041.95 1.444.403.404.871.729 1.418.963a4.491 4.491 0 001.782.351c.637 0 1.236-.117 1.782-.351.547-.234 1.028-.546 1.418-.963.404-.403.716-.884.95-1.444.234-.56.338-1.158.338-1.795 0-.638-.104-1.236-.338-1.795zm3.005 2.849c0 .52.078.988.247 1.418.17.43.417.806.729 1.119a3.22 3.22 0 001.145.715c.442.17.95.247 1.509.247.546 0 1.054-.09 1.496-.26a3.42 3.42 0 001.145-.715 3.21 3.21 0 00.728-1.106c.17-.43.248-.91.248-1.418v-5.36H79.11v5.113c0 .286-.026.546-.091.767-.052.234-.143.43-.273.585-.13.17-.3.287-.508.378-.208.09-.468.13-.767.13a2.22 2.22 0 01-.78-.13 1.365 1.365 0 01-.508-.378 1.754 1.754 0 01-.286-.585 3.478 3.478 0 01-.078-.767v-5.113h-1.965l-.013 5.36zm10.252 3.278h1.925v-5.711l3.838 5.711h1.77v-8.638H89.7v5.607l-3.747-5.607h-1.86v8.638zm15.741-2.42c-.468.456-1.132.677-1.99.677h-1.197v-5.178h1.197a3.7 3.7 0 011.21.182c.338.13.611.3.832.534.221.234.391.507.495.832.104.325.156.69.156 1.08-.013.807-.247 1.431-.703 1.873zm2.381-3.811c-.234-.547-.546-1.002-.963-1.353-.403-.352-.897-.612-1.47-.794a6.47 6.47 0 00-1.847-.26H94.67v8.638h3.253a6.4 6.4 0 001.847-.26 3.945 3.945 0 001.47-.807c.404-.364.729-.806.963-1.34.234-.533.351-1.157.351-1.873 0-.742-.104-1.392-.338-1.951zm5.152 2.732l1.08-3.266 1.04 3.266h-2.12zm2.224-5.14h-2.159l-3.227 8.64h2.043l.663-1.978h3.045l.663 1.977h2.134l-3.162-8.638zm6.323 8.64h1.964v-6.909h2.784v-1.717h-7.545v1.717h2.797v6.908zm9.198-8.64h-1.952v8.64h1.952v-8.64zm9.497 5.335a2.603 2.603 0 01-.495.871 2.312 2.312 0 01-.767.599 2.326 2.326 0 01-1.015.221 2.39 2.39 0 01-1.028-.221 2.503 2.503 0 01-.78-.599 2.472 2.472 0 01-.482-.871 3.09 3.09 0 01-.169-1.054c0-.364.052-.716.169-1.04.104-.326.274-.612.482-.86.208-.247.468-.442.78-.585.3-.143.651-.221 1.028-.221s.716.065 1.015.221c.299.143.559.338.767.585.209.248.378.534.495.86.104.324.169.676.169 1.04 0 .377-.052.728-.169 1.054zm1.873-2.823a4.461 4.461 0 00-.937-1.431 4.487 4.487 0 00-3.213-1.314 4.49 4.49 0 00-3.213 1.314 4.495 4.495 0 00-.95 1.43 4.597 4.597 0 00-.338 1.796c0 .637.117 1.236.338 1.795.234.56.546 1.041.95 1.444a4.49 4.49 0 003.213 1.314 4.49 4.49 0 001.782-.351 4.325 4.325 0 001.431-.963c.404-.403.716-.884.937-1.444.234-.56.351-1.158.351-1.795a5.131 5.131 0 00-.351-1.795zm2.745 6.127h1.926v-5.711l3.837 5.711h1.77v-8.638h-1.926v5.607l-3.747-5.607h-1.86v8.638zm-84.6-12.84h3.238c.52 0 .99-.052 1.406-.13a3.16 3.16 0 001.066-.43c.286-.195.508-.455.677-.767.156-.313.234-.69.234-1.145 0-.338-.065-.65-.182-.898a2.162 2.162 0 00-.456-.637 2.24 2.24 0 00-.572-.39 3.436 3.436 0 00-.533-.196c.104-.026.234-.078.377-.169.156-.09.3-.208.43-.351a2.08 2.08 0 00.35-.546 1.65 1.65 0 00.144-.729c0-.3-.052-.572-.157-.846a1.81 1.81 0 00-.507-.715 2.432 2.432 0 00-.91-.495c-.365-.13-.82-.182-1.353-.182h-3.24v8.626h-.013zm1.898-5.191v-1.938h1.158c.143 0 .274.013.417.052a.894.894 0 01.377.156.867.867 0 01.273.299.998.998 0 01.104.468.942.942 0 01-.104.455.836.836 0 01-.26.3.894.894 0 01-.377.156 1.617 1.617 0 01-.43.052h-1.157zm0 3.682v-2.251h1.275c.143 0 .313.013.482.039.169.026.325.091.481.17.143.077.26.194.364.337.091.143.144.339.144.573 0 .26-.053.468-.144.611-.104.143-.22.26-.377.338-.143.079-.3.13-.481.144-.17.026-.326.026-.469.026h-1.275v.013zm7.026 1.509h6.075v-1.73H65.49V11.28h-1.951v8.626h.013zm8.144-3.279c0 .52.09.989.26 1.418.169.43.403.807.728 1.12.313.311.703.546 1.145.715.443.169.95.247 1.496.247a4.33 4.33 0 001.51-.26 3.31 3.31 0 001.144-.716c.312-.312.56-.676.729-1.106.169-.429.247-.91.247-1.418v-5.36h-1.977v5.113c0 .286-.027.547-.079.768a1.525 1.525 0 01-.273.585 1.23 1.23 0 01-.507.377c-.208.091-.469.13-.768.13-.312 0-.572-.038-.78-.13a1.367 1.367 0 01-.508-.377 1.517 1.517 0 01-.273-.585 3.452 3.452 0 01-.09-.768v-5.113h-1.965v5.36h-.04zm10.16 3.279h6.193v-1.717h-4.242v-1.86h3.07v-1.653h-3.07v-1.678h3.942v-1.73h-5.893v8.638zm12.294 0h1.86l.222-5.607 1.886 3.33h1.015l1.782-3.37.247 5.647h1.952l-.404-8.639h-1.86l-2.199 4.046-2.25-4.046h-1.848l-.403 8.639zm11.058 0h2.043l.663-1.978h3.044l.664 1.978h2.133l-3.161-8.639h-2.159l-3.227 8.639zm3.161-3.5l1.08-3.265 1.054 3.265h-2.134zm7.624 3.5h1.899V16.73h1.093l1.6 3.175h2.147l-1.912-3.46a2.66 2.66 0 001.04-1.003c.248-.416.365-.91.365-1.47 0-.377-.065-.715-.182-1.04a2.387 2.387 0 00-.573-.859 2.785 2.785 0 00-.95-.585c-.377-.144-.819-.209-1.314-.209h-3.213v8.626zm1.899-4.749v-2.29h1.21c.365 0 .651.105.859.313.208.208.312.494.312.845 0 .326-.104.599-.312.82-.208.221-.494.325-.859.325h-1.21v-.013zm9.211-3.89h-1.951v8.639h1.951v-8.639zm2.979 8.639h1.926v-5.711l3.838 5.71h1.769v-8.638h-1.925v5.608l-3.747-5.608h-1.861v8.639zm10.512 0h6.18v-1.717h-4.228v-1.86h3.07v-1.653h-3.07v-1.678h3.954v-1.73h-5.906" fill="#E5FAFF"/></symbol><symbol fill="none" class="svg-sprite" id="looking-glass" viewBox="0 0 16 16"><path d="M12.276 8.387c-.313.901-.245 1.951.43 2.626l2.454 2.456a1.183 1.183 0 010 1.677 1.204 1.204 0 01-1.699.004l-2.468-2.47c-.664-.664-1.69-.74-2.574-.421-1.159.419-2.374.484-3.653.166C3.259 12.06 2.043 11.22 1.15 9.95a6.319 6.319 0 01.84-8.237c2.227-2.121 5.746-2.283 8.167-.42a6.357 6.357 0 012.12 7.095zM6.22 1.777c-2.51.053-4.5 2.141-4.446 4.618.065 2.551 2.131 4.533 4.692 4.446 2.497-.075 4.433-2.153 4.369-4.672-.054-2.466-2.141-4.458-4.616-4.394z" fill="#94E6FB"/></symbol><symbol fill="none" class="svg-sprite" id="love" viewBox="0 0 18 15"><path d="M17.354 14.562c-1.477-.048-2.896-.26-4.306-.578-.998-.22-1.996-.404-2.995-.625a5.676 5.676 0 01-.978-.279A790.9 790.9 0 012.4 10.578a8.115 8.115 0 01-1.096-.52C1 9.887.932 9.637 1.049 9.367a.518.518 0 01.539-.337c.303.03.616.068.9.164.998.327 1.987.683 2.985 1.02.245.077.5.135.754.154 1.634.106 3.268.202 4.903.288.166.01.362.077.49-.115.019-.202-.148-.27-.275-.356-.714-.52-1.517-.847-2.378-1.049-.03-.01-.069-.01-.098-.01-.49-.096-.724-.346-.685-.721.03-.346.343-.577.851-.52.9.106 1.791.25 2.682.414.43.077.852.202 1.263.337 1.35.433 2.329 1.29 2.965 2.53.059.106.127.212.206.347.088-.048.156-.077.244-.116-.03-.144-.058-.279-.088-.442h1.331c.51.981.519 2.953-.284 3.608z" fill="#94E6FB"/><path d="M6.207 10.02c-.225-.028-.372-.028-.5-.076-.998-.347-1.976-.703-2.994-1.068-.088-.24-.04-.443.166-.587.274-.096.49 0 .666.134.763.607 1.624 1.04 2.515 1.434.03.01.039.039.147.164zm1.899-8.438c.362-.394.802-.596 1.33-.587 1.087.01 1.88 1.03 1.616 2.069-.118.48-.392.866-.725 1.222-.646.702-1.41 1.26-2.231 1.799-.304-.212-.607-.414-.9-.635-.588-.433-1.146-.904-1.596-1.482-.382-.5-.597-1.048-.45-1.674.147-.635.548-1.049 1.165-1.231.626-.183 1.194-.039 1.673.404l.118.115z" fill="#94E6FB"/></symbol><symbol fill="none" class="svg-sprite" id="mute-speaker" viewBox="0 0 24 24"><path d="M6.309 12.514a1 1 0 010-1.028l.963-1.607a1 1 0 01.662-.466l1.72-.344a1 1 0 00.572-.34l3.006-3.607c.599-.719 1.768-.295 1.768.64v12.476c0 .935-1.17 1.359-1.768.64l-3.006-3.607a1 1 0 00-.572-.34l-1.72-.344a1 1 0 01-.662-.466l-.963-1.607zM19 19L5 5" stroke="#fff" stroke-linecap="round"/></symbol><symbol class="svg-sprite" id="number-01" viewBox="0 0 47 47"><path d="M19 28.3c-1.6 0-2.4-.8-2.4-2.4v-4.8c0-1.6.8-2.4 2.4-2.4h2.9c1.6 0 2.4.8 2.4 2.4v4.8c0 1.6-.8 2.4-2.4 2.4H19zm2.7-1.5c.6 0 .9-.3.9-.9v-4.7c0-.6-.3-.9-.9-.9h-2.5c-.6 0-.9.3-.9.9v4.7c0 .6.3.9.9.9h2.5zm7.2-6.4h-1.7c-.2 0-.3-.1-.3-.3v-.9c0-.2.1-.3.3-.3h3.1c.2 0 .3.1.3.3v8.7c0 .2-.1.3-.3.3h-1c-.2 0-.3-.1-.3-.3v-7.5z"/></symbol><symbol class="svg-sprite" id="number-02" viewBox="0 0 47 47"><path d="M17 28.4c-1.6 0-2.4-.8-2.4-2.4v-4.8c0-1.6.8-2.4 2.4-2.4h3c1.6 0 2.4.8 2.4 2.4V26c0 1.6-.8 2.4-2.4 2.4h-3zm2.8-1.6c.6 0 .9-.3.9-.9v-4.7c0-.6-.3-.9-.9-.9h-2.5c-.6 0-.9.3-.9.9v4.7c0 .6.3.9.9.9h2.5zm12.8-5c0 .2 0 .4-.1.6-.1.2-.1.4-.2.5-.1.2-.2.3-.3.4-.1.1-.3.2-.4.3l-3.6 3v.1h4.3c.2 0 .3.1.3.3v.9c0 .2-.1.3-.3.3h-6.4c-.2 0-.3-.1-.3-.3V27c0-.2 0-.3.1-.4l.3-.3 4.5-3.7c.2-.1.3-.3.4-.4.1-.1.1-.3.1-.6v-.4c0-.6-.3-.9-.9-.9h-1.8c-.6 0-.9.3-.9.9v.4c0 .2-.1.3-.3.3h-1c-.2 0-.3-.1-.3-.3v-.5c0-1.6.8-2.4 2.4-2.4h2.2c1.6 0 2.4.8 2.4 2.4v.7z"/></symbol><symbol class="svg-sprite" id="number-03" viewBox="0 0 47 47"><path d="M17 28.3c-1.6 0-2.4-.8-2.4-2.4v-4.8c0-1.6.8-2.4 2.4-2.4h2.9c1.6 0 2.4.8 2.4 2.4v4.8c0 1.6-.8 2.4-2.4 2.4H17zm2.7-1.5c.6 0 .9-.3.9-.9v-4.7c0-.6-.3-.9-.9-.9h-2.5c-.6 0-.9.3-.9.9v4.7c0 .6.3.9.9.9h2.5zm10.4-6.4H26c-.2 0-.3-.1-.3-.3v-.9c0-.2.1-.3.3-.3h6.1c.2 0 .3.1.3.3v.6c0 .2 0 .3-.1.4-.1.1-.1.2-.2.3l-2.3 2.1v.1h.3c1.6 0 2.4.8 2.4 2.4v.9c0 1.6-.8 2.4-2.4 2.4h-2.4c-1.6 0-2.4-.8-2.4-2.4v-.4c0-.2.1-.3.3-.3h1c.2 0 .3.1.3.3v.3c0 .6.3.9.9.9h2c.6 0 .9-.3.9-.9V25c0-.6-.3-.9-.9-.9h-2.1c-.2 0-.3-.1-.3-.3v-.5c0-.2 0-.3.1-.4.1-.1.2-.2.2-.3l2.4-2.2z"/></symbol><symbol class="svg-sprite" id="number-04" viewBox="0 0 47 47"><path d="M17 28.3c-1.6 0-2.4-.8-2.4-2.4v-4.8c0-1.6.8-2.4 2.4-2.4h3c1.6 0 2.4.8 2.4 2.4v4.8c0 1.6-.8 2.4-2.4 2.4h-3zm2.8-1.5c.6 0 .9-.3.9-.9v-4.7c0-.6-.3-.9-.9-.9h-2.5c-.6 0-.9.3-.9.9v4.7c0 .6.3.9.9.9h2.5zM33 25.7c0 .2-.1.3-.3.3h-.8v1.8c0 .2-.1.3-.3.3h-1c-.2 0-.3-.1-.3-.3V26h-4.8c-.2 0-.3-.1-.3-.3V25c0-.2 0-.3.1-.4.1-.1.1-.2.2-.3l4-5.1.2-.2c.1-.1.2-.1.3-.1h1.6c.2 0 .3.1.3.3v5.3h.8c.2 0 .3.1.3.3v.9zm-5.9-1.3l3.1.1v-3.9h-.1l-3 3.8z"/></symbol><symbol fill="none" class="svg-sprite" id="plus" viewBox="0 0 8 8"><rect x="3.5" width="1" height="8" rx=".5" fill="#94E6FB"/><rect x="8" y="3.5" width="1" height="8" rx=".5" transform="rotate(90 8 3.5)" fill="#94E6FB"/></symbol><symbol class="svg-sprite" id="protect" viewBox="0 0 22 22"><path d="M12.5 10c.9-2.3 2.4-4 4.5-5.5h.3c.1 0 .3 0 .5.1-1.3 1.8-2.3 3.6-3 5.5.6 0 .5-.5.7-.8.3-.3.5-.7.8-1 .3-.3.5-.6.8-.8.3-.3.7-.5 1-.8.3-.4.8-.2 1-.4.2.1.4.1.5.2-1.2 1.7-2.4 3.2-3 5-.5.3-1 .7-1.6 1.1h-1.3c-.6-.8-1.5-1-2.5-1H9.8c-1.2-.7-2.5-.5-3.8-.3 0-.4-.1-.9-.2-1.4C5.2 8.2 4.2 6.7 3 5c.5.1.8.1 1 .2 1.3.7 2.3 1.7 3.1 3 .3.5.9 1 .8 1.7.3-1.6-.4-3-1.1-4.4.1-.2.2-.3.3-.4.6.4 1.2.9 1.7 1.3.4-.5-.2-1-.2-1.5s-.2-.9-.4-1.4c-.1-.4-.2-1-.3-1.5.3 0 .4 0 .6-.1 1.3 1.1 2 2.5 2.7 5 .6-.9 1.4-1.7 2.4-2.3.1.1.3.2.4.3-.4 1-.9 2-1.2 3-.2.7-.2 1.4-.3 2.1z" fill="#94e6fb"/><path d="M18.4 13.2c-.6.6-1.2 1.1-1.7 1.6-.9.9-1.8 1.7-2.8 2.5-.5.5-1.2.7-2 .7H6.6c-.3.5-.6 1-.9 1.4h-.4c-1.1-1.1-2.1-2.1-3.1-3.2.1-1 .9-1.5 1.6-2.1.2-.2.5-.4.7-.6.6-.6 1.2-1.3 2.3-1.6.7 0 1.7-.1 2.7.4.3.2.9 0 1.3 0h1.3c.4.3.7.5 1.1.8v1l-.6.6H9.7c.4.2.7.4.9.5l-.1.1h2c1.5-1.1 3.1-2.2 4.6-3.3h1c.5.4.3.9.3 1.2z" fill="#94e6fb"/></symbol><symbol class="svg-sprite" id="question" viewBox="0 0 47 47"><path d="M24.9 27.9V31c0 .4-.2.5-.5.5h-2.2c-.3 0-.5-.2-.5-.5v-3c0-.3.2-.5.5-.5h2.2c.4 0 .5.1.5.4zm0-3.3v.6c0 .4-.2.5-.5.5h-2c-.3 0-.5-.2-.5-.5v-.7c0-.5.1-1 .3-1.3.2-.3.5-.7.9-1l1.4-1.1c.5-.4.8-.9.8-1.4v-.1c0-.5-.1-.9-.4-1.1-.2-.2-.6-.4-1.2-.4h-.5c-.5 0-.9.1-1.1.3-.2.2-.3.6-.3 1.1v.5c0 .4-.2.5-.5.5h-2.1c-.4 0-.5-.2-.5-.5v-.6c0-1.3.4-2.3 1.1-3 .7-.7 1.7-1 3-1h1.5c1.3 0 2.3.3 3.1 1 .7.7 1.1 1.7 1.1 3v.4c0 .8-.4 1.5-1.1 2.2l-1.7 1.4c-.6.5-.8.8-.8 1.2z" fill="#94e6fb"/></symbol><symbol class="svg-sprite" id="ray" viewBox="0 0 32 32"><defs><path id="a" d="M1.9.6H28v33.7H1.9z"/></defs><clipPath id="b"><use xlink:href="#a" overflow="visible"/></clipPath><g clip-path="url(#b)"><path d="M20.6 31.4h-.3c-2.3.2-4.6-.1-6.7-1-2-.9-3.5-2.3-4.5-4.3-.9-1.7-1.4-3.6-1.6-5.5-.1-1.5-.2-2.9-.2-4.4 0-.2 0-.3-.1-.5-.3-.9-.7-1.7-1.2-2.4-.6-.8-1.4-1-2.4-.7-.1 0-.2.1-.3.1-.2 0-.3-.1-.2-.3l.3-.6c.5-.7 1.1-1.3 1.9-1.8l2.1-1.5c.4-.3.7-.5 1-.8.4-.3.8-.7 1.2-1 .5-.5 1-1 1.6-1.4 1.5-1.3 3.2-2.2 5-2.8 1.9-.6 3.8-1.1 5.7-1.7.3-.1.6-.1.9-.1.1 0 .2.1.3.2 0 .1 0 .3-.1.3-.2.1-.3.1-.5.2s-.3.1-.5.1c-.1 0-.2.1-.3.2-.1.2-.1.4.1.5.6.3 1.2.4 1.8.2.3-.1.5-.6.4-1 0-.1 0-.1-.1-.2-.1-.2 0-.3.2-.3.4.1.7.5.6.9-.1.7-.3 1.4-.6 2-.2.4-.4.9-.5 1.3-.2.5-.1 1.1.1 1.6 1.1 2.1 1.9 4.4 2.5 6.8.3 1.1.4 2.2.5 3.3 0 .3 0 .4-.3.4s-.5-.1-.7-.3c-.2-.1-.4-.2-.5-.4-.6-.6-1.4-.9-2.2-1.1-1.1-.4-2.2-.7-3.4-.9-1.2-.2-2.4 0-3.6.3-1.4.4-2.8.9-4.1 1.7-.9.5-1.7 1.2-2.2 2.1-.8 1.2-1 2.6-.8 4.1.3 2.1 1.1 4 2.5 5.5 1.2 1.3 2.6 2.1 4.3 2.5 1.1.3 2.2.3 3.3.4.4 0 .9.1 1.3.1.2 0 .2.1.3.2 0-.1 0 0 0 0z" fill="#94e6fb"/></g></symbol><symbol fill="none" class="svg-sprite" id="researcher" viewBox="0 0 18 22"><path d="M8.95 18.293l.743-1.14c.446-.69.897-1.374 1.338-2.068.182-.285.415-.415.753-.41.783.02 1.577-.026 2.355.052 2.118.218 3.81 2.083 3.85 4.208.016.84.006 1.674.006 2.514 0 .3-.146.44-.446.456-.063.005-.12 0-.182 0H.638c-.54 0-.638-.099-.633-.632.005-.881-.03-1.762.037-2.638.176-2.193 2.101-3.934 4.306-3.955.607-.005 1.21.006 1.816-.005.306-.005.524.125.685.378.628.975 1.261 1.944 1.889 2.913.062.104.125.197.213.327zm-.596-4.411c-1.81-.103-3.186-1.098-4.063-2.83-.436-.865-.607-1.798-.555-2.762.01-.165-.036-.259-.182-.352-.498-.321-.726-.819-.804-1.389-.373-2.69 1.738-5.364 4.437-5.618.83-.078 1.572.202 2.184.72.472.405.944.669 1.578.612.181-.016.373.052.56.098 1.141.29 1.754.98 1.904 2.146.099.772.052 1.529-.218 2.27a.659.659 0 00.005.347c.452 2.053.042 3.882-1.442 5.4-.882.897-1.977 1.343-3.404 1.358zm4.022-5.467c-.021-.166-.032-.472-.094-.762-.337-1.555-1.167-2.716-2.724-3.25a1.605 1.605 0 00-.732-.077c-1.095.181-2.065.637-2.854 1.415-.358.352-.767.735-.934 1.186-.596 1.597-.383 3.136.67 4.499 1.463 1.902 4.058 1.938 5.604.109.721-.855 1.048-1.866 1.064-3.12z" fill="#94E6FB"/></symbol><symbol fill="none" class="svg-sprite" id="sea-grass" viewBox="0 0 17 18"><path d="M9.96 8.525c.902-2.212 2.362-3.935 4.4-5.333h.3c.14 0 .279.047.534.094-1.274 1.723-2.27 3.47-2.896 5.402.556.047.44-.535.718-.791.302-.257.487-.652.765-.955.255-.303.532-.56.81-.815.301-.256.718-.443.95-.769.278-.396.787-.163.95-.396.162.07.347.14.51.187-1.159 1.63-2.363 3.074-2.942 4.867-.487.326-.996.675-1.575 1.071h-1.228c-.579-.792-1.459-.978-2.432-.931-.463.023-.926 0-1.39 0-1.18-.7-2.408-.443-3.728-.303-.093-.42-.185-.908-.301-1.397-.533-1.7-1.506-3.168-2.664-4.798.44.07.695.07.903.163 1.297.652 2.27 1.654 3.011 2.888.301.512.834.931.788 1.653.255-1.583-.394-2.91-1.066-4.261.116-.117.209-.233.348-.396.556.442 1.112.908 1.667 1.35.348-.512-.208-.954-.162-1.467.047-.489-.231-.908-.393-1.35-.163-.466-.232-.978-.371-1.537.278-.047.417-.047.556-.07 1.227 1.048 1.992 2.445 2.64 4.867.626-.908 1.367-1.7 2.316-2.259.14.117.255.21.348.303-.394 1.001-.834 1.956-1.135 2.934-.162.652-.14 1.374-.232 2.05z" fill="#94E6FB"/><path d="M15.75 11.6c-.626.582-1.136 1.071-1.668 1.537-.88.838-1.76 1.7-2.687 2.468-.533.443-1.204.652-1.922.652H4.33c-.324.513-.625.955-.903 1.398h-.37L0 14.58c.093-.955.88-1.467 1.552-2.026.208-.187.486-.35.671-.56.603-.605 1.205-1.234 2.27-1.583.718.047 1.668-.14 2.594.42.301.186.834.023 1.25.023h1.275c.347.256.718.512 1.042.745V12.6l-.625.629h-2.85c.418.233.65.372.881.489-.046.046-.07.093-.116.14h1.969c1.436-1.025 2.987-2.143 4.516-3.237h.927c.51.28.393.722.393.978z" fill="#94E6FB"/></symbol><symbol fill="none" class="svg-sprite" id="share-plus" viewBox="0 0 9 9"><path fill-rule="evenodd" clip-rule="evenodd" d="M5.297 0v9h-1.5V0h1.5z" fill="#94E6FB"/><path fill-rule="evenodd" clip-rule="evenodd" d="M9 5.25H0v-1.5h9v1.5z" fill="#94E6FB"/></symbol><symbol fill="none" class="svg-sprite" id="share" viewBox="0 0 18 15"><path d="M17.555 5.184A4009.24 4009.24 0 0010.711.23a1.34 1.34 0 00-.338-.18c-.414-.145-.818.04-.933.428-.036.12-.047.25-.047.374-.005.799-.003 1.596-.003 2.396v.124c-.078 0-.141.002-.204 0-.68-.022-1.36-.004-2.028.112-2.36.412-4.214 1.534-5.58 3.314a7.644 7.644 0 00-1.474 5.91c.095.582.282 1.14.469 1.7.063.187.124.375.198.593l.074-.21c.191-.542.344-1.101.58-1.627.844-1.88 2.296-3.233 4.374-4.01 1.139-.424 2.331-.547 3.55-.48.01 0 .021.009.037.017v2.363c0 .081.004.163.016.245.065.513.58.76 1.084.518.099-.047.189-.11.277-.174l6.788-4.915c.596-.43.6-1.111.004-1.544z" fill="#94E6FB"/></symbol><symbol class="svg-sprite" id="shark" viewBox="0 0 34 34"><path d="M1.2 19.6l.4-.4c.4-.5.9-1 1.2-1.6.2-.3.2-.6.1-1-.6-1.3-.9-2.6-1.3-4-.2-.7-.4-1.3-.6-2-.1-.2-.1-.4-.2-.6l.1-.1c.2.1.3.2.4.3 1.4 1.3 2.3 3 3.2 4.7.4.7.7 1.4 1.1 2.1.1.2.3.3.5.4.7.1 1.3.2 2 .3.3.1.6-.1.8-.3.1-.1 0-.2 0-.3 0-.4.1-.5.4-.3.3.1.6.3.9.5.2.1.4.1.6 0 .8-.4 1.5-.9 2.3-1.3.4-.2.5-.6.5-1s-.1-.7-.2-1.1c-.2-.6-.3-1.2-.5-1.9-.1-.6.2-.9.7-.7.5.2 1 .5 1.5.7.6.4 1.1.8 1.7 1.2.4.3.8.4 1.2.1 1.5-.7 3-1.4 4.6-2 2-.8 4-1.7 6.2-2 .9-.1 1.8-.2 2.8-.1 1.2.1 1.6.8 1.7 2.1v.3c.3.8-.1 1.4-.4 2-.2.4-.5.8-.7 1.1-.3.5-.8.9-1.4 1.1-.6.2-1.2.5-1.8.9-.6.5-1.2.9-1.9 1.3-.3.2-.4.5-.5.9-.1 1.4-.3 2.7-.9 4-.4.8-.9 1.4-1.6 1.9-.3.2-.7 0-.7-.4 0-.2.1-.5.1-.7.2-.9.2-1.8-.2-2.6-.1-.3-.4-.6-.5-.8-1.5.5-3.1.9-4.6 1.4-.5.2-.9.6-1.3.8-.3.1-.5.2-.8.3-.1 0-.3-.2-.3-.3-.1-.4-.1-.5-.6-.5-1.1 0-2.1 0-3.2-.1h-.3c-.6-.2-1.1-.1-1.7.2-.4.2-.4.1-.7-.3-.2-.3-.6-.5-.9-.7-.6-.4-1.2-.7-1.8-1.1-.2-.1-.4-.2-.5-.4-.5-.5-1-.5-1.6-.2-.6.2-1.1.4-1.7.6h-.9c-.2 0-.4-.2-.7-.3v-.1z" fill="#94e6fb"/></symbol><symbol fill="none" class="svg-sprite" id="shop" viewBox="0 0 19 18"><path d="M13.29 4.355c-.635-1.3-1.278-2.601-1.906-3.91-.157-.33-.408-.49-.761-.434-.314.056-.534.273-.557.586-.016.201.055.418.149.603.62 1.284 1.247 2.57 1.875 3.854h1.562a25.8 25.8 0 01-.361-.699zM7.797 1.224c.086-.185.165-.41.157-.603-.024-.337-.243-.562-.58-.61-.354-.048-.59.129-.754.458-.745 1.526-1.499 3.06-2.244 4.593h1.546c.627-1.277 1.255-2.553 1.875-3.838zm10.209 5.324c0-.627-.212-.86-.824-.868h-16v-.008H.799c-.549.008-.784.257-.792.82-.008.883-.008 1.766 0 2.65.008.505.267.802.745.77.377-.024.487.145.565.474.463 1.935.934 3.863 1.405 5.79.18.739.306.835 1.051.835H14.28c.667 0 .824-.128.98-.779.487-1.983.974-3.959 1.444-5.942.063-.257.142-.378.432-.37.62.008.847-.24.847-.875.024-.835.024-1.67.024-2.497z" fill="#94E6FB"/></symbol><symbol fill="none" class="svg-sprite" id="snorkel" viewBox="0 0 16 21"><path d="M14.585 13.686c-.74.29-1.427.523-2.08.834-.269.133-.494.41-.666.666-.525.8-.857.99-1.748.734a8.14 8.14 0 00-4.525.01c-.858.245-1.169.045-1.705-.71-.236-.334-.6-.59-.944-.822-.29-.212-.632-.334-.933-.534C.022 12.586-.193 11.81.118 9.231.236 8.198.944 7.52 1.866 7.186c1.116-.41 2.295-.61 3.464-.355 1.62.355 3.196.4 4.847.044 1.823-.4 2.778-.155 4.45.667V6.92c0-1.89.022-3.778-.01-5.667-.01-.544.257-.622.654-.622.375.011.73-.011.73.589-.022 5.4 0 10.81-.044 16.21-.021 2.19-1.78 3.612-3.689 3.079-1.244-.345-2.059-1.59-1.855-2.912.043-.277.215-.6.43-.777.374-.311.857-.078.964.422.054.255.075.511.086.767.043 1.01.89 1.522 1.759 1.055.6-.31.911-.844.922-1.51.032-1.279.01-2.568.01-3.868zm-.01-3.489c0-1.333-.43-1.9-1.674-2.266-.997-.289-1.995-.267-2.949.078-1.426.51-2.777.5-4.204 0-1.094-.378-2.241-.378-3.346.066-.815.323-1.276.911-1.265 1.845.01.355 0 .71.054 1.055.203 1.345 1.008 2.145 2.38 2.4 1.159.211 1.705-.589 2.21-1.455.16-.29.3-.59.471-.867.15-.244.311-.5.504-.711.633-.689 1.598-.7 2.22.011.236.267.418.6.6.911.247.411.44.845.708 1.245.601.889 1.352 1.122 2.338.755 1.384-.522 1.952-1.4 1.952-3.066z" fill="#94E6FB"/></symbol><symbol class="svg-sprite" id="snorkelling" viewBox="0 0 22 22"><defs><path id="a" d="M2.8 1.1h16.4v20H2.8z"/></defs><clipPath id="b"><use xlink:href="#a" overflow="visible"/></clipPath><g clip-path="url(#b)"><path d="M17.7 14.2c-.8.3-1.5.5-2.1.8-.3.1-.5.4-.7.7-.5.8-.9 1-1.8.7-1.6-.4-3.1-.4-4.6 0-.9.2-1.2 0-1.7-.7-.2-.3-.6-.6-1-.8-.3-.2-.6-.3-1-.5-2-1.3-2.2-2.1-1.9-4.6.1-1 .8-1.7 1.8-2 1.1-.5 2.3-.7 3.5-.5 1.7.4 3.3.4 5 0 1.9-.3 2.9-.1 4.6.7V1.7c0-.5.3-.6.7-.6.4 0 .7 0 .7.6v16.2c0 2.2-1.8 3.6-3.8 3.1-1.3-.3-2.1-1.6-1.9-2.9 0-.3.2-.6.4-.8.4-.3.9-.1 1 .4.1.3.1.5.1.8 0 1 .9 1.5 1.8 1.1.6-.3.9-.8.9-1.5.1-1.3 0-2.6 0-3.9zm0-3.5c0-1.3-.4-1.9-1.7-2.3-1-.3-2-.3-3 .1-1.5.5-2.9.5-4.3 0-1.1-.4-2.3-.4-3.5.1-.8.3-1.3.9-1.3 1.8 0 .4 0 .7.1 1.1.2 1.3 1 2.1 2.4 2.4 1.2.2 1.7-.6 2.3-1.5.2-.3.3-.6.5-.9.2-.2.3-.5.5-.7.6-.7 1.6-.7 2.3 0l.6.9c.3.4.5.8.7 1.2.6.9 1.4 1.1 2.4.8 1.4-.5 2-1.3 2-3z" fill="#94e6fb"/></g></symbol><symbol class="svg-sprite" id="speaker" viewBox="0 0 22 22"><defs><path id="a" transform="rotate(-14.999 10.582 10.915)" d="M1.4 4.4h18.4v13H1.4z"/></defs><clipPath id="b"><use xlink:href="#a" overflow="visible"/></clipPath><g clip-path="url(#b)" fill="#94e6fb"><path d="M13.8 10c.5 1.9 1 3.7 1.5 5.6 0 .1.1.2.1.3.1.4-.2.6-.6.5-.5-.1-1-.3-1.5-.4l-5.7-1.5c-.3-.1-.5-.2-.6-.6-.3-1.3-.7-2.6-1-3.8-.1-.3 0-.5.2-.8C8 7.6 9.7 5.8 11.5 4.1c.1-.1.3-.2.4-.2.2 0 .3.1.4.3 0 .1.1.2.1.4.4 1.7.9 3.6 1.4 5.4zm-7.1 4.6s0 .1 0 0c-.8.2-1.5.5-2.3.6-1.3.2-2.5-.7-2.8-1.9-.3-1.2.3-2.6 1.5-3 .7-.3 1.5-.4 2.2-.6.6 1.6 1 3.2 1.4 4.9zm1.1.3v.4c-.1.9-.3 1.7-.4 2.6 0 .3-.2.5-.5.5-.5.1-1 .3-1.5.4-.5.1-.7-.1-.6-.5.1-.9.3-1.8.4-2.7 0-.2.1-.3.3-.3.5-.1 1.1-.3 1.7-.4h.6zm6.7-3.4c-.3-1.1-.6-2.1-.8-3.2.3-.1.5-.1.7-.2.2 0 .4.1.5.3.1.2.1.4.1.6.2.6.3 1.1.5 1.7.1.4 0 .6-.4.7-.2 0-.4.1-.6.1zm6.1 1.4c.1.3-.1.5-.5.5-.2 0-.3-.1-.5-.1-.5-.1-1-.2-1.5-.4-.1 0-.2 0-.3-.1-.2-.1-.2-.2-.2-.4.1-.2.2-.3.4-.3h.2c.6.2 1.3.3 1.9.5.3 0 .5.1.5.3zm-2.3-8.6c0 .1-.1.2-.1.3-.5.5-1 1-1.6 1.5-.2.2-.4.2-.6 0-.1-.2-.2-.4 0-.6.5-.5 1-1 1.6-1.5.3-.3.6-.1.7.3zm-.1 5c-.3.1-.6.2-.9.2-.3.1-.5 0-.6-.3-.1-.2 0-.4.3-.5.6-.2 1.2-.3 1.8-.5.3-.1.5 0 .6.3.1.2-.1.4-.4.5-.2.1-.5.2-.8.3z"/></g></symbol><symbol fill="none" class="svg-sprite" id="swimming-fish" viewBox="0 0 19 15"><path d="M18.387 8.189c-.27-.019-.537-.044-.806-.056a3.924 3.924 0 00-.96.067c-.033.007-.064.017-.104.027.015.015.022.027.033.034.72.475 1.134 1.125 1.265 1.922.264 1.591-.652 3.226-2.209 3.962a4.11 4.11 0 01-2.378.347c-.337-.049-.666-.14-.998-.221a1.82 1.82 0 00-.659-.032c-.412.05-.8.18-1.194.288-.427.117-.855.233-1.286.333a1.23 1.23 0 01-.674-.021l-.075-.03c-.01-.006-.018-.014-.036-.027.597-.476 1.225-.9 1.94-1.253l-1.042-2.153a.466.466 0 01.276-.012c.28.055.505.202.72.363.506.38.925.838 1.327 1.306.079.093.15.19.232.28.027.03.076.059.116.062.856.072 1.714.102 2.572.003.167-.02.335-.048.5-.083.36-.076.543-.325.503-.663-.031-.264-.137-.503-.266-.736-.258-.467-.592-.889-.954-1.293a.303.303 0 00-.03-.025.28.28 0 00-.127.223 6.98 6.98 0 00.008.56c.007.147.029.292.043.445-.018 0-.029.002-.038-.002-.577-.216-.963-.593-.967-1.202-.002-.2.026-.4.051-.6.038-.315.04-.313-.246-.489-.76-.467-1.504-.954-2.172-1.53a4.312 4.312 0 01-.734-.774 1.214 1.214 0 01-.232-.514.53.53 0 01.21-.518c.198-.162.44-.22.695-.236.496-.03.973.066 1.443.195 1.082.294 2.09.745 3.077 1.24.131.066.272.076.412.09.497.046.996.085 1.493.138.304.034.605.096.885.215.171.072.315.167.384.336a.209.209 0 01.002.034z" fill="#94E6FB"/><path d="M.465 6.118c.378.065.752.137 1.132.193.25.035.504.04.767-.002-.01-.015-.011-.025-.019-.032-.707-.604-1.024-1.353-1.007-2.22C1.373 2.305 2.851.724 4.758.4a4.368 4.368 0 012.547.314c.549.246 1.09.258 1.664.172.553-.082 1.106-.17 1.66-.245.255-.033.516-.035.766.037.087.025.167.067.271.11-.042.03-.065.046-.089.06-.63.366-1.283.693-1.986.928-.064.02-.07.047-.054.099.208.723.426 1.442.705 2.145l.02.056c-.076 0-.145.008-.212-.002a1.08 1.08 0 01-.465-.218 3.95 3.95 0 01-.862-.887c-.272-.37-.52-.755-.782-1.13a.208.208 0 00-.115-.081c-.817-.168-1.642-.294-2.484-.314a5.917 5.917 0 00-.621.02c-.403.035-.611.241-.624.607-.008.235.052.462.134.682.192.52.478 1 .797 1.465.007.012.018.022.031.035a.33.33 0 00.172-.241 8.66 8.66 0 00.07-.616c.01-.116.002-.234.002-.353.032 0 .043-.003.049 0 .62.317.921.786.796 1.427-.03.156-.08.31-.12.465-.017.062-.036.124-.049.188-.02.096 0 .173.091.245.644.505 1.272 1.025 1.838 1.605.322.33.633.67.85 1.067.082.15.15.309.185.472.076.344-.103.606-.471.72-.304.094-.613.07-.92.013-.504-.095-.975-.277-1.433-.483-.883-.398-1.704-.885-2.497-1.41a1.108 1.108 0 00-.402-.165c-.56-.12-1.124-.231-1.68-.372-.262-.067-.51-.185-.755-.296a.59.59 0 01-.32-.335v-.067z" fill="#94E6FB"/></symbol><symbol class="svg-sprite" id="tiktok" viewBox="0 0 11 13"><path d="M8.088 0h-2.17v8.855c0 1.055-.835 1.922-1.874 1.922-1.039 0-1.874-.867-1.874-1.922 0-1.036.817-1.884 1.818-1.922V4.71C1.781 4.748 0 6.575 0 8.855 0 11.154 1.818 13 4.062 13c2.245 0 4.063-1.865 4.063-4.145v-4.54a5.01 5.01 0 002.875.98V3.07C9.368 3.014 8.088 1.658 8.088 0z"/></symbol><symbol class="svg-sprite" id="tuna" viewBox="0 0 35 35"><path d="M11.1 20.3c.1.1.3.1.4.2.2.1.2.2 0 .3-.2.2-.3.4-.3.7v.1c-.2.2-.2.5-.2.8 0 .1 0 .3-.2.2-.2.3-.2-.1-.3-.2-.4-.6-.4-1.3-.5-2-.1-.4-.3-.7-.7-.8-.8-.3-1.6-.5-2.4-.9-1.3-.6-2.7-1.3-3.9-2.2-.6-.4-1.1-.8-1.7-1.2-.2-.2-.5-.3-.7-.4-.1 0-.1-.1-.2-.2s0-.3.1-.3h.4c.4 0 .8.1 1.3.1h.2c.1-.2 0-.4-.1-.6-.2-.4-.5-.7-.7-1.1-.1-.1-.1-.2-.2-.3.1 0 .2-.1.3-.1.5-.1 1.1-.2 1.6-.3 1.6-.4 3.1-.6 4.7-.6.9 0 1.8.1 2.6.2.2 0 .4 0 .5-.3.3-.7.8-1.2 1.3-1.7l.9-.9.3-.3c.1.2.2.5.3.7 0 .1 0 .1-.1.2-.1.2-.2.4-.1.6 0 .1 0 .2.1.3 0 .1.1.1.1.2l.2.2c.1.1.2.1.2.1.1 0 .2.1.2.2.1.2.2.2.3.2.1 0 .2.1.2.2l.2.2c.2 0 .3.2.5.3.1.1.3.1.4.1 0 .2.2.2.4.3.2.1.5.3.7.5.3.2.5.6.8.6h.5c.4-.2.8-.4 1.3-.6.7-.3 1.3-.6 2-.8.6-.2 1.2-.2 1.8 0h.1l.1.1c-.1 0-.1.1-.2.1-.2.1-.4.1-.6.1-.8 0-1.4.4-2 .9-.2.2-.5.4-.6.7 0 .2-.1.3 0 .5 0 .2.1.3.3.4.1 0 .1.1.2.1.1.1.3.1.4.1.2-.1.2 0 .2.2 0 .1 0 .2.1.3.2.1.3.2.5.4h.1c.3-.1.3-.1.4.2 0 .3.4.5.6.4.1 0 .3-.1.4-.1v.3c0 .2.1.3.2.3.2.1.3.3.6.2.1 0 .2-.1.3-.1v.2c0 .3.2.4.4.4h.2c.1 0 .2-.1.4-.1.2.7.7.6 1.2.5v.1c.1.3.3.4.6.2.2-.1.2-.1.3.1.1.3.2.3.5.1.1-.1.2-.1.3-.2 0 0 0 .1.1.1.2.3.3.4.6.2.1-.1.3-.2.4-.3.4-.5.7-1.1 1.1-1.6.4-.7.9-1.3 1.3-1.9.2-.4.5-.7.9-.9.2-.1.4-.2.5-.3h.3v.1c-.1.1-.1.3-.2.4-.2.2-.4.5-.6.7-.3.4-.4.9-.6 1.3-.2.7-.5 1.4-.7 2v.2c0 .2.1.5 0 .7v.1c.2.3 0 .6.2.9.1.3.2.5.4.8.2.5.5.9.7 1.4.3.7.7 1.3 1.2 1.9-.4 0-.7-.1-.9-.3-.3-.3-.7-.6-1-.9-.8-1-1.7-1.9-2.5-2.9-.2-.2-.4-.4-.7-.4-.1 0-.3.1-.3.2-.1.2-.2.2-.3.1l-.1-.1c-.2-.2-.3-.1-.5 0-.1.1-.1.2-.2.3-.2 0-.3-.3-.6-.2-.3.1-.4.2-.5.5-.1-.1-.2-.1-.2-.1-.3-.3-.6-.2-.9-.1-.1 0-.2.2-.3.3-.1.1-.1.1-.2 0-.4-.3-.7-.2-1 .3 0 0 0 .1-.1.1-.1-.1-.2-.1-.3-.2-.2-.2-.3-.1-.5 0s-.3.2-.2.4v.1c-.2 0-.3-.1-.4-.2-.3-.2-.7-.1-.9.2 0 .1-.1.1-.1.2-.1-.1-.3-.2-.4-.3-.1-.1-.2-.1-.3 0-.2.1-.3.1-.5.2s-.3.2-.3.4.1.4.1.6c.3 1.2.9 2.2 1.7 3.1 0 .1.1.1.1.2v.1c-.1-.1-.2-.1-.3-.2-1.2-1-2.2-2.1-2.9-3.5-.1-.2-.2-.3-.3-.5-.1-.2-.2-.3-.5-.3-.5 0-1.1-.1-1.6-.1-1.3-.1-2.5-.3-3.7-.5-.6-.2-1.1-.3-1.5-.4z" fill="#94e6fb"/></symbol><symbol class="svg-sprite" id="twitter" viewBox="0 0 13 11"><path d="M3.992 10.257c4.678 0 7.297-3.964 7.297-7.362v-.314c.5-.378.936-.818 1.248-1.322a5.227 5.227 0 01-1.497.378c.561-.315.935-.818 1.123-1.447-.5.314-1.06.503-1.622.629A2.547 2.547 0 006.923.693c-.623.63-.935 1.573-.748 2.454C4.117 3.084 2.245 2.077.935.44a2.611 2.611 0 00.811 3.461c-.436 0-.81-.126-1.185-.315v.063c0 1.259.874 2.266 2.059 2.517-.375.126-.749.126-1.185.063.311 1.07 1.31 1.762 2.37 1.762-.936.692-1.996 1.133-3.181 1.133-.187 0-.437 0-.624-.063 1.247.755 2.62 1.195 3.992 1.195z"/></symbol><symbol class="svg-sprite" id="unseen-logo" viewBox="0 0 1263.3 159.6"><style>.st0{fill:#fff}</style><path class="st0" d="M1233.6 45c0-8.7 6.5-15.1 14.8-15.1s14.8 6.4 14.8 15.1-6.5 15.1-14.8 15.1-14.8-6.4-14.8-15.1zm27.3 0c0-7.5-5.3-13-12.5-13s-12.5 5.5-12.5 13 5.3 13 12.5 13 12.5-5.5 12.5-13zm-18.3-8h7.4c3 0 5 1.8 5 4.4 0 1.9-.9 3.3-3 3.9v.1c1.6.5 2.2 1.4 2.4 3.5.2 2.4.3 3.7.7 3.9v.2h-2.7c-.4-.2-.5-1.6-.6-3.7-.1-2-1.1-2.9-3.2-2.9h-3.4V53h-2.7l.1-16zm2.8 7.3h4c1.9 0 2.9-1 2.9-2.5 0-1.6-.9-2.5-2.9-2.5h-4.1v5zM87.7 53v103.5H69.1v-16.8C50.7 168.3 0 168 0 117.8V53h18.6v64.8c0 41 50.5 30.6 50.5-1.5V53h18.6zm104.5 38.7v64.8h-18.6V91.7c0-41-51.1-30.6-51.1 1.5v63.3h-18.6V53h18.6v16.1c19.3-27.9 69.7-27.3 69.7 22.6zm11 32.5h18.6c0 11.8 11.4 18.4 24.8 18.4 13.9 0 24.8-6.4 24.8-18.4 0-23.8-67-1.9-67-43.2 0-18.6 18.6-29.6 40.3-29.6 21.9 0 39.9 10.3 39.9 29.6h-17.2c0-10.1-10.1-15.3-22.8-15.3S222 71 222 80.9c0 23.8 68.1.6 68.1 43.2 0 20.3-18.6 34.1-43.5 34.1-24.8.1-43.4-11.9-43.4-34zM348.7 143c19.5 0 29.8-11 33.7-20.3l14.3 6.8c-6 12.8-21.1 28.3-48 28.3-29.6 0-50.7-21.9-50.7-53.6 0-31 21.1-53 50.7-53 29.4 0 53.8 22.1 49.7 61.2H316c2.7 17.6 14.1 30.6 32.7 30.6zm33.5-46.4c-2.7-19.2-16.6-30.4-33.5-30.4-18.8 0-30.2 13-32.7 30.4h66.2zm77.2 46.4c19.4 0 29.8-11 33.7-20.3l14.3 6.8c-6 12.8-21.1 28.3-48 28.3-29.6 0-50.7-21.9-50.7-53.6 0-31 21.1-53 50.7-53 29.4 0 53.8 22.1 49.7 61.2h-82.4c2.7 17.6 14.1 30.6 32.7 30.6zm33.5-46.4c-2.7-19.2-16.6-30.4-33.5-30.4-18.8 0-30.2 13-32.7 30.4h66.2zm116.9-4.9v64.8h-18.6V91.7c0-41-51.1-30.6-51.1 1.5v63.3h-18.6V53h18.6v16.1c19.2-27.9 69.7-27.3 69.7 22.6zM726.6 136c-.8-23.2-74.1-21.9-76.6-53.2-2.9-31.5 36.4-41.2 82.2-25v31H731c-2.5-17.2-14.9-38.7-49.7-35.2-8.1 1-23.2 3.5-21.7 17 2.1 26.9 75.7 19.7 78 53.2.8 12-6.4 21.9-9.7 25-16.1 14.7-44.5 10.8-74.5 6.6l-.4-42.2 1.2.4c0 52.8 72.4 53.2 72.4 22.4zm33.7-5.8V65h-13.4l30.2-37v25h42.8l-10.3 12h-32.5l-.6 71.2c-.2 25.2 35 21.9 55.5-10.3h1.9c-25.1 45.7-73.6 39-73.6 4.3zm82.2-12.9l-.2-64.3h17.2v60.6c0 38.3 38.3 57.3 63.4 15.7v-4.5l.4-71.8H940v72c0 20.9 4.6 30 12.4 31.7-24.2 0-28.8-9.5-29.6-23.8-26.3 45.3-80.1 26-80.3-15.6zM1047 59.2l.6-44.1L1063.7 0v125c0 19.9 4.6 29.8 12.4 31.5-20.7 0-28.3-8.3-29.6-18.2-8.3 11.6-21.7 20.5-41.6 20.5-35.8 0-54.2-39.5-44.3-67.9 7.9-22.8 39-58 86.4-31.7zm-28.8 90.6c12.8 0 21.3-6 28.1-15.3v-1.7l.7-54.8c-17.2-19.5-48-30.8-65.8-8.1-20.1 22.8-4.2 79.9 37 79.9zm80.3-138.4c6 0 11 5 11 11s-5 10.8-11 10.8-10.8-4.8-10.8-10.8 4.8-11 10.8-11zm8.9 145.1h-18.6l.8-12.4V53h17v91l.8 12.5zm131.2-50.5c-.4 29.8-28.3 53.6-57.7 53.6-29 0-56.3-23.8-55.7-53.6.2-29.4 28.6-55 57.7-55 29.2-.1 56.1 25.6 55.7 55zm-19 0c-.8-36.2-21.3-51.7-41.4-51.7-20.3 0-37.2 18-34.6 51.7 2.3 31.7 21.3 49.5 41.4 49.5 20.5-.1 34.8-15.8 34.6-49.5z"/></symbol><symbol class="svg-sprite" id="volunteer" viewBox="0 0 22 22"><defs><path id="a" d="M.2 1.4h21.5v19.5H.2z"/></defs><clipPath id="b"><use xlink:href="#a" overflow="visible"/></clipPath><g clip-path="url(#b)" fill="#94e6fb"><path d="M10 16.3c0-1.4.1-2.9.1-4.3 0-.1 0-.1-.1-.2-.2-.1-.4-.2-.5-.3-.7-.4-1.1-.9-1.4-1.6-.4-.8-.8-1.4-1.4-2l-.6-.3c-.1-.1-.2-.1-.2-.2-.1-.1-.2-.3-.1-.4.1-.2.3-.3.5-.3.6 0 1.1.2 1.6.5.4.3.8.6 1.1 1.1l.1.1.1-.1c.2-.6.3-1.2.1-1.8l-.9-3.3V3c0-.3.1-.6.5-.6.3-.1.6.1.7.4l1.2 3.3c0 .1 0 .2.2.2.1 0 .2-.2.2-.3 0-1.3 0-2.5-.1-3.8 0-.4.2-.7.6-.7.3 0 .4.1.5.3.1.2.1.4.1.6 0 1.3.1 2.5.1 3.8v.1c0 .1 0 .1.1.2 0 0 .1 0 .1-.1 0 0 .1-.1.1-.2.3-1.1.6-2.2 1-3.3 0-.1.1-.3.2-.4.1-.2.4-.3.6-.2.2.1.2.2.3.3.1.3.1.6 0 .8-.3 1.1-.5 2.2-.8 3.3v.2s0 .1.1.1c0 0 .1 0 .1-.1.3-.5.7-1 1-1.5l.6-.9c.1-.1.1-.2.2-.2-.1-.2 0-.3.1-.3.4-.1.6.2.5.5 0 .3-.2.6-.3.8l-1.2 2.1c-.1.2-.1.4-.1.6 0 .5 0 1-.1 1.6-.1.6-.3 1.1-.5 1.7-.2.3-.4.6-.7.8 0 0-.1.1-.1.2 0 .9.1 1.7.1 2.6.1 1.9.1 3.8.2 5.6 0 .1 0 .1-.1.1-1.2.3-2.5.4-3.8.3-.1 0-.1-.1-.1-.1 0-1.6.1-3 .1-4.5zm1.9-6.3c0-.7-.3-1.2-.8-1.5-.4-.3-.9-.4-1.4-.4h-.1c1.1.3 1.9.8 2.3 1.9zM6.2 20.2h-.1c-.8-.3-1.6-.7-2.3-1.2-.1-.1-.1-.1-.1-.2-.1-1.2-.2-2.3-.3-3.5 0-.1 0-.1-.1-.2-.3 0-.3-.1-.4-.1-.5-.2-.8-.5-1-.9-.2-.4-.5-.7-.9-.9-.2-.1-.3-.2-.5-.3-.1-.1-.2-.2-.2-.3 0-.1.2-.3.3-.3.3 0 .6 0 .8.1.3.1.6.4.9.6 0 0 .1 0 .1.1l.1-.1c.1-.4.1-.7-.1-1.1-.3-.6-.5-1.3-.8-1.9 0-.1 0-.1-.1-.2 0-.2 0-.4.2-.4.2-.1.3 0 .4.2.3.6.6 1.3 1 1.9 0 .1 0 .2.1.1.1 0 .1-.1.1-.2-.1-.8-.2-1.5-.3-2.3 0-.3.1-.4.3-.5.1 0 .3 0 .3.1.2.2.2.3.2.4.1.7.2 1.5.3 2.2v.1s0 .1.1.1l.1-.1c0-.1 0-.2.1-.3l.3-1.8c0-.1 0-.2.1-.3.1-.1.2-.1.3-.1.1 0 .2.1.2.2 0 .2.1.4 0 .6-.1.7-.1 1.3-.2 2v.2l.1-.1c.2-.5.5-1 .7-1.5 0-.1.1-.1.1-.2.1-.1.2-.1.4-.1.1 0 .2.1.2.3 0 .2-.1.4-.1.5-.2.5-.4.9-.6 1.4 0 .1-.1.2-.1.3v1.2c0 .4-.1.7-.3 1 0 .1-.1.2-.2.3-.1.1-.1.2-.1.4.3 1.6.5 3.2.8 4.7.2 0 .2 0 .2.1zm-2-6.4c-.1-.6-.7-1-1.5-1 .3 0 .6.1.9.3.2.2.4.4.6.7z"/><path d="M16.9 19.8v-.4c.2-1.3.3-2.6.5-4 0-.1 0-.2-.1-.2-.4-.2-.7-.5-.9-.9-.1-.1-.1-.2-.1-.4-.1-.4-.3-.7-.6-1-.1-.1-.2-.2-.4-.3-.1-.1-.2-.2-.2-.3 0-.1.2-.2.4-.2s.5.1.7.2c.3.2.6.5.8.8l.1.1.1-.1c.1-.3.2-.6.2-1-.1-.6-.2-1.3-.4-1.9V10c0-.2.1-.3.3-.3.2 0 .3.1.4.2.2.6.3 1.3.5 1.9v.1l.1.1c0-.1.1-.1.1-.2 0-.2 0-.4.1-.6 0-.5.1-1.1.1-1.6 0-.3.2-.4.4-.4s.3.1.3.2v.4c-.1.7-.1 1.4-.2 2.1v.2l.1-.1c.2-.6.5-1.2.7-1.8 0-.1.1-.2.1-.2.1-.1.2-.2.4-.1.1 0 .2.1.2.3 0 .2 0 .3-.1.5l-.6 1.8v.2l.1-.1c.3-.4.7-.8 1-1.2 0-.1.1-.1.2-.2s.2-.1.4 0c.1.1.1.2.1.3-.1.2-.1.3-.2.5-.3.4-.5.7-.8 1.1-.1.1-.1.2-.1.4-.1.3-.1.6-.2.9-.1.5-.4 1-.8 1.3v.1c-.1.8-.1 1.6-.1 2.4 0 .1-.1.2-.2.3-.6.5-1.3.9-2.1 1.3-.1-.1-.2-.1-.3 0zm1.7-5.6c.1-.5-.5-1.2-1.2-1.2.7.2 1.1.6 1.2 1.2z"/></g></symbol><symbol class="svg-sprite" id="warning" viewBox="0 0 5 22"><path d="M3.563 15.493c.517 0 .775-.258.775-.775V.775C4.338.258 4.08 0 3.563 0H.775C.258 0 0 .258 0 .775v13.943c0 .517.258.775.775.775h2.788zm0 6.507c.517 0 .775-.258.775-.775v-2.479c0-.516-.258-.774-.775-.774H.775c-.517 0-.775.258-.775.774v2.48c0 .516.258.774.775.774h2.788z"/></symbol><symbol fill="none" class="svg-sprite" id="webcam" viewBox="0 0 16 22"><path d="M9.749 16.199v2.438c1.628 0 3.222-.017 4.798 0 1.05 0 1.488.467 1.4 1.47-.052.7-.455 1.085-1.173 1.085-4.517.017-9.052.017-13.57 0-.84 0-1.19-.418-1.19-1.236 0-.868.35-1.302 1.207-1.302 1.629-.034 3.257 0 4.956 0v-2.439c-.298-.016-.613-.05-.91-.066-2.855-.25-5.044-2.338-5.201-5.093a47.807 47.807 0 010-5.01c.14-2.755 2.311-4.86 5.2-5.043a42.056 42.056 0 015.428 0c2.907.167 5.078 2.321 5.236 5.126a43.125 43.125 0 010 4.76c-.158 2.989-2.346 5.043-5.48 5.26a6.15 6.15 0 00-.701.05zm2.679-7.581c-.018-2.355-1.996-4.242-4.465-4.225-2.487 0-4.448 1.937-4.413 4.341.035 2.288 2.049 4.175 4.448 4.159 2.451-.017 4.447-1.938 4.43-4.275z" fill="#94E6FB"/><path d="M7.98 5.546c-1.804 0-3.274 1.419-3.257 3.139.018 1.686 1.488 3.056 3.257 3.056 1.769 0 3.222-1.37 3.257-3.056.035-1.737-1.436-3.14-3.257-3.14z" fill="#94E6FB"/></symbol><symbol class="svg-sprite" id="whale" viewBox="0 0 38 38"><path d="M2 11.6c.1-.1.3-.1.4-.2h.2c.3.1.5.1.8 0h.2c.2.3.4.2.7.1h.4c.1.1.4 0 .5 0 .1 0 .2-.1.2 0 .2.1.4.1.6 0 .5-.1 1.1-.1 1.6-.2h.2c.4.3.8.4 1.3.5.9.1 1.9.2 2.8.4 2.3.3 4.6.7 7 1.1.3 0 .5.1.8.2.4.1.7.1 1.1 0h2.8c.1 0 .1.1 0 .2s-.3.2-.2.4c.1.2.2.4.5.4.4 0 .9.1 1.3.1.2 0 .5-.1.7-.1.2.1.5-.1.7-.1.1 0 .2-.1.2 0 .5.1 1 0 1.4-.2h.2c.3.1.6.1.9 0 .2 0 .4-.1.6 0 .1.1.4.1.5.1.3-.1.6.1.9.2.5.2 1 .1 1.4-.1 1.1-.5 2.3-.5 3.5-.3.1 0 .1 0 .2.1v.1H36c0 .3-.2.1-.3.2v.1c-.1.1-.2.3-.4.4-.1.1-.2.1-.3.1-.1.3-.4.4-.7.5-.1.1-.2.3-.2.3-.2.2-.2.3 0 .4.9.6 2 1.1 3 1.4.1 0 .2.1.3.1v.1h-.2c-1.4-.1-2.7-.3-4-.9-.4-.2-.7-.4-1-.7-.3-.2-.5-.3-.9-.3-.8.1-1.5.4-2.2.8-1.1.6-2.1 1.3-3.1 2s-2.2 1.3-3.4 1.6c-1.4.3-2.7.6-4.1.5-1-.1-2-.2-3.1-.3h-.3c0 .4.2.8.4 1.2.2.4.3.8.5 1.1.1.2 0 .5 0 .7 0 .1-.3.3-.5.2-.1 0-.2-.1-.3-.2-.2-.2-.3-.4-.4-.6-.1-.1-.2-.2-.2-.3-.1-.1-.1-.2-.2-.3-.1-.1-.2-.3-.3-.4 0-.1-.1-.1-.1-.2 0-.2-.1-.2-.3-.2-.1 0-.1-.1-.2-.2 0-.1-.1-.3-.1-.4-.2-.2-.3-.4-.3-.6 0-.2 0-.4-.3-.4.3.6.4 1.3.5 2 0 .4.1.8.2 1.1.2.5.4.9.7 1.3.4.6.7 1.2.9 1.9 0 .1 0 .2-.1.3l-.3.3c-.1.1-.2.1-.3.1H14.1c-.2-.1-.4-.2-.6-.4-.1-.1-.1-.1-.2-.1-.2 0-.3-.1-.3-.3 0-.1-.1-.2-.2-.2-.2-.1-.2-.1-.2-.3 0-.3-.2-.5-.5-.5-.2 0-.2-.1-.2-.3 0-.2 0-.3-.2-.4-.1 0-.1-.2-.2-.3-.1-.1-.1-.2-.2-.3-.1-.1-.2-.2-.1-.3.1-.3-.1-.5-.4-.6-.1 0-.1-.1-.1-.2 0-.6-.1-1.1-.3-1.7-.1-.2-.2-.4-.5-.5-.2-.1-.3-.3-.1-.4.3-.3.2-.7.2-1.1l-.1-.1c-1.2-.5-2.1-1.3-3.1-2.1-.8-.6-1.5-1.3-2.3-1.9-.3-.2-.7-.4-1-.6h-.1c-.1.2-.3.1-.5.2-.3.1-.6 0-.7-.2-.1-.1-.2-.2-.3-.2-.2-.1-.3-.2-.2-.5 0-.1-.1-.1-.1-.2-.1-.1-.3-.2-.4-.2 0 0-.1-.1 0-.1-.2-.8-.2-1.1 0-1.3.1-.1.3-.2.4-.4.2-.1.2-.1.4.1z" fill="#94e6fb"/><path d="M2 11.6c.1-.1.3-.1.4-.2h.2c.3.1.5.1.8 0h.2c.2.3.4.2.7.1h.4c.1.1.4 0 .5 0 .1 0 .2-.1.2 0 .2.1.4.1.6 0 .5-.1 1.1-.1 1.6-.2h.2c.4.3.8.4 1.3.5.9.1 1.9.2 2.8.4 2.3.3 4.6.7 7 1.1.3 0 .5.1.8.2.4.1.7.1 1.1 0h2.8c.1 0 .1.1 0 .2s-.3.2-.2.4c.1.2.2.4.5.4.4 0 .9.1 1.3.1.2 0 .5-.1.7-.1.2.1.5-.1.7-.1.1 0 .2-.1.2 0 .5.1 1 0 1.4-.2h.2c.3.1.6.1.9 0 .2 0 .4-.1.6 0 .1.1.4.1.5.1.3-.1.6.1.9.2.5.2 1 .1 1.4-.1 1.1-.5 2.3-.5 3.5-.3.1 0 .1 0 .2.1v.1H36c0 .3-.2.1-.3.2v.1c-.1.1-.2.3-.4.4-.1.1-.2.1-.3.1-.1.3-.4.4-.7.5-.1.1-.2.3-.2.3-.2.2-.2.3 0 .4.9.6 2 1.1 3 1.4.1 0 .2.1.3.1v.1h-.2c-1.4-.1-2.7-.3-4-.9-.4-.2-.7-.4-1-.7-.3-.2-.5-.3-.9-.3-.8.1-1.5.4-2.2.8-1.1.6-2.1 1.3-3.1 2s-2.2 1.3-3.4 1.6c-1.4.3-2.7.6-4.1.5-1-.1-2-.2-3.1-.3h-.3c0 .4.2.8.4 1.2.2.4.3.8.5 1.1.1.2 0 .5 0 .7 0 .1-.3.3-.5.2-.1 0-.2-.1-.3-.2-.2-.2-.3-.4-.4-.6-.1-.1-.2-.2-.2-.3-.1-.1-.1-.2-.2-.3-.1-.1-.2-.3-.3-.4 0-.1-.1-.1-.1-.2 0-.2-.1-.2-.3-.2-.1 0-.1-.1-.2-.2 0-.1-.1-.3-.1-.4-.2-.2-.3-.4-.3-.6 0-.2 0-.4-.3-.4.3.6.4 1.3.5 2 0 .4.1.8.2 1.1.2.5.4.9.7 1.3.4.6.7 1.2.9 1.9 0 .1 0 .2-.1.3l-.3.3c-.1.1-.2.1-.3.1H14.1c-.2-.1-.4-.2-.6-.4-.1-.1-.1-.1-.2-.1-.2 0-.3-.1-.3-.3 0-.1-.1-.2-.2-.2-.2-.1-.2-.1-.2-.3 0-.3-.2-.5-.5-.5-.2 0-.2-.1-.2-.3 0-.2 0-.3-.2-.4-.1 0-.1-.2-.2-.3-.1-.1-.1-.2-.2-.3-.1-.1-.2-.2-.1-.3.1-.3-.1-.5-.4-.6-.1 0-.1-.1-.1-.2 0-.6-.1-1.1-.3-1.7-.1-.2-.2-.4-.5-.5-.2-.1-.3-.3-.1-.4.3-.3.2-.7.2-1.1l-.1-.1c-1.2-.5-2.1-1.3-3.1-2.1-.8-.6-1.5-1.3-2.3-1.9-.3-.2-.7-.4-1-.6h-.1c-.1.2-.3.1-.5.2-.3.1-.6 0-.7-.2-.1-.1-.2-.2-.3-.2-.2-.1-.3-.2-.2-.5 0-.1-.1-.1-.1-.2-.1-.1-.3-.2-.4-.2 0 0-.1-.1 0-.1-.2-.8-.2-1.1 0-1.3.1-.1.3-.2.4-.4.2-.1.2-.1.4.1z" fill="#94e6fb"/></symbol><symbol fill="none" class="svg-sprite" id="write" viewBox="0 0 18 18"><path d="M4.262 13.845l.317-1.325c.224-.939.487-1.935 1.354-2.782 2.09-2.061 4.145-4.152 6.204-6.246.901-.917 1.804-1.835 2.71-2.752l.004-.003c.125-.125.266-.263.41-.368.145-.107.383-.25.698-.254.32-.004.562.135.712.243.144.105.285.242.406.363l.003.003.024.024c.143.145.294.298.404.438.114.145.297.41.292.775-.004.36-.19.621-.304.763-.112.14-.265.293-.413.44l-.021.021c-.893.906-1.787 1.808-2.68 2.709-2.081 2.1-4.158 4.194-6.208 6.32-.718.755-1.609.994-2.336 1.19-.09.024-.18.048-.264.072l-1.312.369z" fill="#94E6FB"/><path fill-rule="evenodd" clip-rule="evenodd" d="M3 3.715a1.2 1.2 0 00-1.2 1.2v10a1.2 1.2 0 001.2 1.2h10a1.2 1.2 0 001.2-1.2v-3.603a.8.8 0 011.6 0v3.603a2.8 2.8 0 01-2.8 2.8H3a2.8 2.8 0 01-2.8-2.8v-10a2.8 2.8 0 012.8-2.8h3.003a.8.8 0 010 1.6H3z" fill="#94E6FB"/></symbol></svg>